<?xml version="1.0" encoding="utf-8"?>
<!-- Generator: Adobe Illustrator 22.1.0, SVG Export Plug-In . SVG Version: 6.00 Build 0)  -->
<svg version="1.1" id="Layer_1" xmlns="http://www.w3.org/2000/svg" xmlns:xlink="http://www.w3.org/1999/xlink" x="0px" y="0px"
	 viewBox="0 0 769.8 1017.2" style="enable-background:new 0 0 769.8 1017.2;" xml:space="preserve">
<style type="text/css">
	.st0{clip-path:url(#SVGID_2_);fill:#BEC3CE;}
	.st1{clip-path:url(#SVGID_2_);fill:none;stroke:#000000;}
	.st2{fill:#586578;}
	.st3{fill:none;stroke:#63748A;}
	.st4{fill:#657689;}
	.st5{fill:none;stroke:#5A697B;}
	.st6{fill:#526878;}
	.st7{fill:#506779;}
	.st8{fill:#63748A;}
	.st9{clip-path:url(#SVGID_4_);fill:none;stroke:#63748A;}
	.st10{clip-path:url(#SVGID_6_);fill:none;stroke:#63748A;}
</style>
<g>
	<g>
		<defs>
			<rect id="SVGID_1_" x="0.9" y="-4.6" width="768" height="1024"/>
		</defs>
		<clipPath id="SVGID_2_">
			<use xlink:href="#SVGID_1_"  style="overflow:visible;"/>
		</clipPath>
		<polygon class="st0" points="-6.6,-6.6 -6.6,1023.4 776.4,1023.4 776.4,-6.6 -6.6,-6.6 		"/>
		<polygon class="st1" points="-6.6,-6.6 -6.6,1023.4 776.4,1023.4 776.4,-6.6 -6.6,-6.6 		"/>
	</g>
	<path class="st2" d="M642.2,966.2c3.9,0,7-3.1,7-7c0-3.9-3.1-7-7-7c-3.9,0-7,3.1-7,7C635.2,963,638.3,966.2,642.2,966.2
		L642.2,966.2z"/>
	<path class="st3" d="M642.2,966.2c3.9,0,7-3.1,7-7c0-3.9-3.1-7-7-7c-3.9,0-7,3.1-7,7C635.2,963,638.3,966.2,642.2,966.2
		L642.2,966.2z"/>
	<path class="st2" d="M642.2,973.7c3.9,0,7-3.1,7-7c0-3.9-3.1-7-7-7c-3.9,0-7,3.1-7,7C635.2,970.5,638.3,973.7,642.2,973.7
		L642.2,973.7z"/>
	<path class="st3" d="M642.2,973.7c3.9,0,7-3.1,7-7c0-3.9-3.1-7-7-7c-3.9,0-7,3.1-7,7C635.2,970.5,638.3,973.7,642.2,973.7
		L642.2,973.7z"/>
	<path class="st4" d="M208.4,499.4c3.9,0,7-3.1,7-7c0-3.9-3.1-7-7-7s-7,3.1-7,7C201.4,496.3,204.5,499.4,208.4,499.4L208.4,499.4z"
		/>
	<path class="st3" d="M208.4,499.4c3.9,0,7-3.1,7-7c0-3.9-3.1-7-7-7s-7,3.1-7,7C201.4,496.3,204.5,499.4,208.4,499.4L208.4,499.4z"
		/>
	<path class="st4" d="M208.4,506.9c3.9,0,7-3.1,7-7c0-3.9-3.1-7-7-7s-7,3.1-7,7C201.4,503.8,204.5,506.9,208.4,506.9L208.4,506.9z"
		/>
	<path class="st3" d="M208.4,506.9c3.9,0,7-3.1,7-7c0-3.9-3.1-7-7-7s-7,3.1-7,7C201.4,503.8,204.5,506.9,208.4,506.9L208.4,506.9z"
		/>
	<path class="st4" d="M212.9,23.4c3.9,0,7-3.1,7-7c0-3.9-3.1-7-7-7s-7,3.1-7,7C205.9,20.3,209,23.4,212.9,23.4L212.9,23.4z"/>
	<path class="st3" d="M212.9,23.4c3.9,0,7-3.1,7-7c0-3.9-3.1-7-7-7s-7,3.1-7,7C205.9,20.3,209,23.4,212.9,23.4L212.9,23.4z"/>
	<path class="st4" d="M212.9,30.9c3.9,0,7-3.1,7-7c0-3.9-3.1-7-7-7s-7,3.1-7,7C205.9,27.8,209,30.9,212.9,30.9L212.9,30.9z"/>
	<path class="st3" d="M212.9,30.9c3.9,0,7-3.1,7-7c0-3.9-3.1-7-7-7s-7,3.1-7,7C205.9,27.8,209,30.9,212.9,30.9L212.9,30.9z
		 M296.7,141.4c3.9,0,7-3.1,7-7s-3.1-7-7-7c-3.9,0-7,3.1-7,7S292.8,141.4,296.7,141.4L296.7,141.4z"/>
	<path class="st5" d="M296.7,857.9c3.9,0,7-3.1,7-7c0-3.9-3.1-7-7-7c-3.9,0-7,3.1-7,7C289.7,854.8,292.8,857.9,296.7,857.9
		L296.7,857.9z"/>
	<path class="st3" d="M467.9,51.4c3.9,0,7-3.1,7-7c0-3.9-3.1-7-7-7c-3.9,0-7,3.1-7,7C460.9,48.3,464,51.4,467.9,51.4L467.9,51.4z"/>
	<path class="st4" d="M467.4,605.9c3.9,0,7-3.1,7-7c0-3.9-3.1-7-7-7c-3.9,0-7,3.1-7,7C460.4,602.8,463.5,605.9,467.4,605.9
		L467.4,605.9z"/>
	<path class="st3" d="M467.4,605.9c3.9,0,7-3.1,7-7c0-3.9-3.1-7-7-7c-3.9,0-7,3.1-7,7C460.4,602.8,463.5,605.9,467.4,605.9
		L467.4,605.9z"/>
	<path class="st6" d="M642.7,26.9c3.9,0,7-3.1,7-7c0-3.9-3.1-7-7-7c-3.9,0-7,3.1-7,7C635.7,23.8,638.8,26.9,642.7,26.9L642.7,26.9z"
		/>
	<path class="st3" d="M642.7,26.9c3.9,0,7-3.1,7-7c0-3.9-3.1-7-7-7c-3.9,0-7,3.1-7,7C635.7,23.8,638.8,26.9,642.7,26.9L642.7,26.9z"
		/>
	<path class="st7" d="M642.2,179.9c3.9,0,7-3.1,7-7c0-3.9-3.1-7-7-7c-3.9,0-7,3.1-7,7C635.2,176.8,638.3,179.9,642.2,179.9
		L642.2,179.9z"/>
	<path class="st7" d="M642.2,187.4c3.9,0,7-3.1,7-7c0-3.9-3.1-7-7-7c-3.9,0-7,3.1-7,7C635.2,184.3,638.3,187.4,642.2,187.4
		L642.2,187.4z"/>
	<path class="st3" d="M744.2,618.9c3.9,0,7-3.1,7-7c0-3.9-3.1-7-7-7c-3.9,0-7,3.1-7,7C737.2,615.8,740.3,618.9,744.2,618.9
		L744.2,618.9z M748.2,856.9c3.9,0,7-3.1,7-7c0-3.9-3.1-7-7-7c-3.9,0-7,3.1-7,7C741.2,853.8,744.3,856.9,748.2,856.9L748.2,856.9z"
		/>
	<path class="st8" d="M22.6,413.7c3.9,0,7.1-3.2,7.1-7.1s-3.2-7.1-7.1-7.1c-3.9,0-7.1,3.2-7.1,7.1S18.7,413.7,22.6,413.7L22.6,413.7
		z"/>
	<g>
		<defs>
			<rect id="SVGID_3_" x="0.9" y="-4.6" width="768" height="1024"/>
		</defs>
		<clipPath id="SVGID_4_">
			<use xlink:href="#SVGID_3_"  style="overflow:visible;"/>
		</clipPath>
		<path class="st9" d="M22.6,413.7c3.9,0,7.1-3.2,7.1-7.1s-3.2-7.1-7.1-7.1c-3.9,0-7.1,3.2-7.1,7.1S18.7,413.7,22.6,413.7
			L22.6,413.7z M22.6,491.2c3.9,0,7.1-3.2,7.1-7.1c0-3.9-3.2-7.1-7.1-7.1c-3.9,0-7.1,3.2-7.1,7.1C15.5,488,18.7,491.2,22.6,491.2
			L22.6,491.2z M22.6,498.8c3.9,0,7.1-3.2,7.1-7.1s-3.2-7.1-7.1-7.1c-3.9,0-7.1,3.2-7.1,7.1S18.7,498.8,22.6,498.8L22.6,498.8z
			 M22.6,171.2c3.9,0,7.1-3.2,7.1-7.1c0-3.9-3.2-7.1-7.1-7.1c-3.9,0-7.1,3.2-7.1,7.1C15.5,168,18.7,171.2,22.6,171.2L22.6,171.2z
			 M23.1,9.7c3.9,0,7.1-3.2,7.1-7.1S27-4.5,23.1-4.5c-3.9,0-7.1,3.2-7.1,7.1S19.2,9.7,23.1,9.7L23.1,9.7z M23.1,17.3
			c3.9,0,7.1-3.2,7.1-7.1c0-3.9-3.2-7.1-7.1-7.1c-3.9,0-7.1,3.2-7.1,7.1C16,14.1,19.2,17.3,23.1,17.3L23.1,17.3z M23.1,94.3
			c3.9,0,7.1-3.2,7.1-7.1c0-3.9-3.2-7.1-7.1-7.1c-3.9,0-7.1,3.2-7.1,7.1C16,91.1,19.2,94.3,23.1,94.3L23.1,94.3z M22.6,249.2
			c3.9,0,7.1-3.2,7.1-7.1c0-3.9-3.2-7.1-7.1-7.1c-3.9,0-7.1,3.2-7.1,7.1C15.5,246,18.7,249.2,22.6,249.2L22.6,249.2z M22.6,256.8
			c3.9,0,7.1-3.2,7.1-7.1c0-3.9-3.2-7.1-7.1-7.1c-3.9,0-7.1,3.2-7.1,7.1C15.5,253.6,18.7,256.8,22.6,256.8L22.6,256.8z M22.6,334.7
			c3.9,0,7.1-3.2,7.1-7.1c0-3.9-3.2-7.1-7.1-7.1c-3.9,0-7.1,3.2-7.1,7.1C15.5,331.6,18.7,334.7,22.6,334.7L22.6,334.7z M22.6,655.7
			c3.9,0,7.1-3.2,7.1-7.1s-3.2-7.1-7.1-7.1c-3.9,0-7.1,3.2-7.1,7.1S18.7,655.7,22.6,655.7L22.6,655.7z M22.6,576.7
			c3.9,0,7.1-3.2,7.1-7.1s-3.2-7.1-7.1-7.1c-3.9,0-7.1,3.2-7.1,7.1S18.7,576.7,22.6,576.7L22.6,576.7z M22.6,733.2
			c3.9,0,7.1-3.2,7.1-7.1c0-3.9-3.2-7.1-7.1-7.1c-3.9,0-7.1,3.2-7.1,7.1C15.5,730,18.7,733.2,22.6,733.2L22.6,733.2z M22.6,740.8
			c3.9,0,7.1-3.2,7.1-7.1s-3.2-7.1-7.1-7.1c-3.9,0-7.1,3.2-7.1,7.1S18.7,740.8,22.6,740.8L22.6,740.8z M22.6,896.7
			c3.9,0,7.1-3.2,7.1-7.1c0-3.9-3.2-7.1-7.1-7.1c-3.9,0-7.1,3.2-7.1,7.1C15.5,893.5,18.7,896.7,22.6,896.7L22.6,896.7z M22.6,817.7
			c3.9,0,7.1-3.2,7.1-7.1c0-3.9-3.2-7.1-7.1-7.1c-3.9,0-7.1,3.2-7.1,7.1C15.5,814.5,18.7,817.7,22.6,817.7L22.6,817.7z M22.6,974.2
			c3.9,0,7.1-3.2,7.1-7.1c0-3.9-3.2-7.1-7.1-7.1c-3.9,0-7.1,3.2-7.1,7.1C15.5,971,18.7,974.2,22.6,974.2L22.6,974.2z M22.6,981.8
			c3.9,0,7.1-3.2,7.1-7.1c0-3.9-3.2-7.1-7.1-7.1c-3.9,0-7.1,3.2-7.1,7.1C15.5,978.6,18.7,981.8,22.6,981.8L22.6,981.8z M118.8,530.7
			c3.9,0,7.1-3.2,7.1-7.1c0-3.9-3.2-7.1-7.1-7.1c-3.9,0-7.1,3.2-7.1,7.1C111.7,527.5,114.8,530.7,118.8,530.7L118.8,530.7z
			 M118.8,608.1c3.9,0,7.1-3.2,7.1-7.1c0-3.9-3.2-7.1-7.1-7.1c-3.9,0-7.1,3.2-7.1,7.1C111.7,604.9,114.8,608.1,118.8,608.1
			L118.8,608.1z M118.8,615.7c3.9,0,7.1-3.2,7.1-7.1c0-3.9-3.2-7.1-7.1-7.1c-3.9,0-7.1,3.2-7.1,7.1
			C111.7,612.5,114.8,615.7,118.8,615.7L118.8,615.7z M118.8,288.2c3.9,0,7.1-3.2,7.1-7.1c0-3.9-3.2-7.1-7.1-7.1
			c-3.9,0-7.1,3.2-7.1,7.1C111.7,285,114.8,288.2,118.8,288.2L118.8,288.2z M119.3,126.7c3.9,0,7.1-3.2,7.1-7.1
			c0-3.9-3.2-7.1-7.1-7.1c-3.9,0-7.1,3.2-7.1,7.1C112.2,123.5,115.3,126.7,119.3,126.7L119.3,126.7z M119.3,134.3
			c3.9,0,7.1-3.2,7.1-7.1c0-3.9-3.2-7.1-7.1-7.1c-3.9,0-7.1,3.2-7.1,7.1C112.2,131.1,115.3,134.3,119.3,134.3L119.3,134.3z
			 M119.3,211.2c3.9,0,7.1-3.2,7.1-7.1c0-3.9-3.2-7.1-7.1-7.1c-3.9,0-7.1,3.2-7.1,7.1C112.2,208,115.3,211.2,119.3,211.2
			L119.3,211.2z M118.8,366.1c3.9,0,7.1-3.2,7.1-7.1c0-3.9-3.2-7.1-7.1-7.1c-3.9,0-7.1,3.2-7.1,7.1
			C111.7,362.9,114.8,366.1,118.8,366.1L118.8,366.1z M118.8,373.7c3.9,0,7.1-3.2,7.1-7.1c0-3.9-3.2-7.1-7.1-7.1
			c-3.9,0-7.1,3.2-7.1,7.1C111.7,370.5,114.8,373.7,118.8,373.7L118.8,373.7z M118.8,451.7c3.9,0,7.1-3.2,7.1-7.1
			c0-3.9-3.2-7.1-7.1-7.1c-3.9,0-7.1,3.2-7.1,7.1C111.7,448.5,114.8,451.7,118.8,451.7L118.8,451.7z M118.8,772.7
			c3.9,0,7.1-3.2,7.1-7.1s-3.2-7.1-7.1-7.1c-3.9,0-7.1,3.2-7.1,7.1S114.8,772.7,118.8,772.7L118.8,772.7z M118.8,693.7
			c3.9,0,7.1-3.2,7.1-7.1c0-3.9-3.2-7.1-7.1-7.1c-3.9,0-7.1,3.2-7.1,7.1C111.7,690.5,114.8,693.7,118.8,693.7L118.8,693.7z
			 M118.8,850.1c3.9,0,7.1-3.2,7.1-7.1c0-3.9-3.2-7.1-7.1-7.1c-3.9,0-7.1,3.2-7.1,7.1C111.7,846.9,114.8,850.1,118.8,850.1
			L118.8,850.1z M118.8,857.7c3.9,0,7.1-3.2,7.1-7.1c0-3.9-3.2-7.1-7.1-7.1c-3.9,0-7.1,3.2-7.1,7.1
			C111.7,854.5,114.8,857.7,118.8,857.7L118.8,857.7z M118.8,1013.6c3.9,0,7.1-3.2,7.1-7.1c0-3.9-3.2-7.1-7.1-7.1
			c-3.9,0-7.1,3.2-7.1,7.1C111.7,1010.5,114.8,1013.6,118.8,1013.6L118.8,1013.6z"/>
	</g>
	<path class="st8" d="M118.8,934.7c3.9,0,7.1-3.2,7.1-7.1c0-3.9-3.2-7.1-7.1-7.1c-3.9,0-7.1,3.2-7.1,7.1
		C111.7,931.5,114.8,934.7,118.8,934.7L118.8,934.7z"/>
	<g>
		<defs>
			<rect id="SVGID_5_" x="0.9" y="-4.6" width="768" height="1024"/>
		</defs>
		<clipPath id="SVGID_6_">
			<use xlink:href="#SVGID_5_"  style="overflow:visible;"/>
		</clipPath>
		<path class="st10" d="M119,42.1c3.9,0,7.1-3.2,7.1-7.1s-3.2-7.1-7.1-7.1c-3.9,0-7.1,3.2-7.1,7.1S115.1,42.1,119,42.1L119,42.1z
			 M212.4,413.7c3.9,0,7.1-3.2,7.1-7.1s-3.2-7.1-7.1-7.1s-7.1,3.2-7.1,7.1S208.5,413.7,212.4,413.7L212.4,413.7z M212.4,171.2
			c3.9,0,7.1-3.2,7.1-7.1c0-3.9-3.2-7.1-7.1-7.1s-7.1,3.2-7.1,7.1C205.3,168,208.5,171.2,212.4,171.2L212.4,171.2z M212.9,94.3
			c3.9,0,7.1-3.2,7.1-7.1c0-3.9-3.2-7.1-7.1-7.1s-7.1,3.2-7.1,7.1C205.8,91.1,209,94.3,212.9,94.3L212.9,94.3z M212.4,249.2
			c3.9,0,7.1-3.2,7.1-7.1c0-3.9-3.2-7.1-7.1-7.1s-7.1,3.2-7.1,7.1C205.3,246,208.5,249.2,212.4,249.2L212.4,249.2z M212.4,256.8
			c3.9,0,7.1-3.2,7.1-7.1c0-3.9-3.2-7.1-7.1-7.1s-7.1,3.2-7.1,7.1C205.3,253.6,208.5,256.8,212.4,256.8L212.4,256.8z M212.4,334.7
			c3.9,0,7.1-3.2,7.1-7.1c0-3.9-3.2-7.1-7.1-7.1s-7.1,3.2-7.1,7.1C205.3,331.6,208.5,334.7,212.4,334.7L212.4,334.7z M212.4,655.7
			c3.9,0,7.1-3.2,7.1-7.1s-3.2-7.1-7.1-7.1s-7.1,3.2-7.1,7.1S208.5,655.7,212.4,655.7L212.4,655.7z M212.4,576.7
			c3.9,0,7.1-3.2,7.1-7.1s-3.2-7.1-7.1-7.1s-7.1,3.2-7.1,7.1S208.5,576.7,212.4,576.7L212.4,576.7z M212.4,733.2
			c3.9,0,7.1-3.2,7.1-7.1c0-3.9-3.2-7.1-7.1-7.1s-7.1,3.2-7.1,7.1C205.3,730,208.5,733.2,212.4,733.2L212.4,733.2z M212.4,740.8
			c3.9,0,7.1-3.2,7.1-7.1s-3.2-7.1-7.1-7.1s-7.1,3.2-7.1,7.1S208.5,740.8,212.4,740.8L212.4,740.8z M212.4,896.7
			c3.9,0,7.1-3.2,7.1-7.1c0-3.9-3.2-7.1-7.1-7.1s-7.1,3.2-7.1,7.1C205.3,893.5,208.5,896.7,212.4,896.7L212.4,896.7z M212.4,817.7
			c3.9,0,7.1-3.2,7.1-7.1c0-3.9-3.2-7.1-7.1-7.1s-7.1,3.2-7.1,7.1C205.3,814.5,208.5,817.7,212.4,817.7L212.4,817.7z M212.4,974.2
			c3.9,0,7.1-3.2,7.1-7.1c0-3.9-3.2-7.1-7.1-7.1s-7.1,3.2-7.1,7.1C205.3,971,208.5,974.2,212.4,974.2L212.4,974.2z M212.4,981.8
			c3.9,0,7.1-3.2,7.1-7.1c0-3.9-3.2-7.1-7.1-7.1s-7.1,3.2-7.1,7.1C205.3,978.6,208.5,981.8,212.4,981.8L212.4,981.8z M377.5,414.7
			c3.9,0,7.1-3.2,7.1-7.1c0-3.9-3.2-7.1-7.1-7.1c-3.9,0-7.1,3.2-7.1,7.1C370.4,411.6,373.5,414.7,377.5,414.7L377.5,414.7z
			 M377.5,492.2c3.9,0,7.1-3.2,7.1-7.1c0-3.9-3.2-7.1-7.1-7.1c-3.9,0-7.1,3.2-7.1,7.1C370.4,489,373.5,492.2,377.5,492.2
			L377.5,492.2z M377.5,499.8c3.9,0,7.1-3.2,7.1-7.1s-3.2-7.1-7.1-7.1c-3.9,0-7.1,3.2-7.1,7.1S373.5,499.8,377.5,499.8L377.5,499.8z
			 M377.5,172.2c3.9,0,7.1-3.2,7.1-7.1s-3.2-7.1-7.1-7.1c-3.9,0-7.1,3.2-7.1,7.1S373.5,172.2,377.5,172.2L377.5,172.2z M378,10.7
			c3.9,0,7.1-3.2,7.1-7.1c0-3.9-3.2-7.1-7.1-7.1c-3.9,0-7.1,3.2-7.1,7.1C370.9,7.5,374.1,10.7,378,10.7L378,10.7z M378,18.3
			c3.9,0,7.1-3.2,7.1-7.1c0-3.9-3.2-7.1-7.1-7.1c-3.9,0-7.1,3.2-7.1,7.1C370.9,15.1,374.1,18.3,378,18.3L378,18.3z M378,95.3
			c3.9,0,7.1-3.2,7.1-7.1c0-3.9-3.2-7.1-7.1-7.1c-3.9,0-7.1,3.2-7.1,7.1C370.9,92.1,374.1,95.3,378,95.3L378,95.3z M377.5,250.2
			c3.9,0,7.1-3.2,7.1-7.1c0-3.9-3.2-7.1-7.1-7.1c-3.9,0-7.1,3.2-7.1,7.1C370.4,247,373.5,250.2,377.5,250.2L377.5,250.2z
			 M377.5,257.8c3.9,0,7.1-3.2,7.1-7.1s-3.2-7.1-7.1-7.1c-3.9,0-7.1,3.2-7.1,7.1S373.5,257.8,377.5,257.8L377.5,257.8z M377.5,335.7
			c3.9,0,7.1-3.2,7.1-7.1c0-3.9-3.2-7.1-7.1-7.1c-3.9,0-7.1,3.2-7.1,7.1C370.4,332.6,373.5,335.7,377.5,335.7L377.5,335.7z
			 M377.5,656.7c3.9,0,7.1-3.2,7.1-7.1c0-3.9-3.2-7.1-7.1-7.1c-3.9,0-7.1,3.2-7.1,7.1C370.4,653.5,373.5,656.7,377.5,656.7
			L377.5,656.7z M377.5,577.7c3.9,0,7.1-3.2,7.1-7.1c0-3.9-3.2-7.1-7.1-7.1c-3.9,0-7.1,3.2-7.1,7.1
			C370.4,574.6,373.5,577.7,377.5,577.7L377.5,577.7z M377.5,734.2c3.9,0,7.1-3.2,7.1-7.1c0-3.9-3.2-7.1-7.1-7.1
			c-3.9,0-7.1,3.2-7.1,7.1C370.4,731,373.5,734.2,377.5,734.2L377.5,734.2z M377.5,741.8c3.9,0,7.1-3.2,7.1-7.1
			c0-3.9-3.2-7.1-7.1-7.1c-3.9,0-7.1,3.2-7.1,7.1C370.4,738.6,373.5,741.8,377.5,741.8L377.5,741.8z M377.5,897.7
			c3.9,0,7.1-3.2,7.1-7.1c0-3.9-3.2-7.1-7.1-7.1c-3.9,0-7.1,3.2-7.1,7.1C370.4,894.5,373.5,897.7,377.5,897.7L377.5,897.7z
			 M377.5,818.7c3.9,0,7.1-3.2,7.1-7.1c0-3.9-3.2-7.1-7.1-7.1c-3.9,0-7.1,3.2-7.1,7.1C370.4,815.6,373.5,818.7,377.5,818.7
			L377.5,818.7z M377.5,975.2c3.9,0,7.1-3.2,7.1-7.1c0-3.9-3.2-7.1-7.1-7.1c-3.9,0-7.1,3.2-7.1,7.1
			C370.4,972,373.5,975.2,377.5,975.2L377.5,975.2z M377.5,982.8c3.9,0,7.1-3.2,7.1-7.1s-3.2-7.1-7.1-7.1c-3.9,0-7.1,3.2-7.1,7.1
			S373.5,982.8,377.5,982.8L377.5,982.8z M567.3,413.7c3.9,0,7.1-3.2,7.1-7.1s-3.2-7.1-7.1-7.1c-3.9,0-7.1,3.2-7.1,7.1
			S563.4,413.7,567.3,413.7L567.3,413.7z M567.3,491.2c3.9,0,7.1-3.2,7.1-7.1c0-3.9-3.2-7.1-7.1-7.1c-3.9,0-7.1,3.2-7.1,7.1
			C560.2,488,563.4,491.2,567.3,491.2L567.3,491.2z M567.3,498.8c3.9,0,7.1-3.2,7.1-7.1s-3.2-7.1-7.1-7.1c-3.9,0-7.1,3.2-7.1,7.1
			S563.4,498.8,567.3,498.8L567.3,498.8z M567.3,171.2c3.9,0,7.1-3.2,7.1-7.1c0-3.9-3.2-7.1-7.1-7.1c-3.9,0-7.1,3.2-7.1,7.1
			C560.2,168,563.4,171.2,567.3,171.2L567.3,171.2z M567.8,9.7c3.9,0,7.1-3.2,7.1-7.1s-3.2-7.1-7.1-7.1c-3.9,0-7.1,3.2-7.1,7.1
			S563.9,9.7,567.8,9.7L567.8,9.7z M567.8,17.3c3.9,0,7.1-3.2,7.1-7.1c0-3.9-3.2-7.1-7.1-7.1c-3.9,0-7.1,3.2-7.1,7.1
			C560.7,14.1,563.9,17.3,567.8,17.3L567.8,17.3z M567.8,94.3c3.9,0,7.1-3.2,7.1-7.1c0-3.9-3.2-7.1-7.1-7.1c-3.9,0-7.1,3.2-7.1,7.1
			C560.7,91.1,563.9,94.3,567.8,94.3L567.8,94.3z M567.3,249.2c3.9,0,7.1-3.2,7.1-7.1c0-3.9-3.2-7.1-7.1-7.1c-3.9,0-7.1,3.2-7.1,7.1
			C560.2,246,563.4,249.2,567.3,249.2L567.3,249.2z M567.3,256.8c3.9,0,7.1-3.2,7.1-7.1c0-3.9-3.2-7.1-7.1-7.1
			c-3.9,0-7.1,3.2-7.1,7.1C560.2,253.6,563.4,256.8,567.3,256.8L567.3,256.8z M567.3,334.7c3.9,0,7.1-3.2,7.1-7.1
			c0-3.9-3.2-7.1-7.1-7.1c-3.9,0-7.1,3.2-7.1,7.1C560.2,331.6,563.4,334.7,567.3,334.7L567.3,334.7z M567.3,655.7
			c3.9,0,7.1-3.2,7.1-7.1s-3.2-7.1-7.1-7.1c-3.9,0-7.1,3.2-7.1,7.1S563.4,655.7,567.3,655.7L567.3,655.7z M567.3,576.7
			c3.9,0,7.1-3.2,7.1-7.1s-3.2-7.1-7.1-7.1c-3.9,0-7.1,3.2-7.1,7.1S563.4,576.7,567.3,576.7L567.3,576.7z M567.3,733.2
			c3.9,0,7.1-3.2,7.1-7.1c0-3.9-3.2-7.1-7.1-7.1c-3.9,0-7.1,3.2-7.1,7.1C560.2,730,563.4,733.2,567.3,733.2L567.3,733.2z
			 M567.3,740.8c3.9,0,7.1-3.2,7.1-7.1s-3.2-7.1-7.1-7.1c-3.9,0-7.1,3.2-7.1,7.1S563.4,740.8,567.3,740.8L567.3,740.8z M567.3,896.7
			c3.9,0,7.1-3.2,7.1-7.1c0-3.9-3.2-7.1-7.1-7.1c-3.9,0-7.1,3.2-7.1,7.1C560.2,893.5,563.4,896.7,567.3,896.7L567.3,896.7z
			 M567.3,817.7c3.9,0,7.1-3.2,7.1-7.1c0-3.9-3.2-7.1-7.1-7.1c-3.9,0-7.1,3.2-7.1,7.1C560.2,814.5,563.4,817.7,567.3,817.7
			L567.3,817.7z M567.3,986.3c3.9,0,7.1-3.2,7.1-7.1c0-3.9-3.2-7.1-7.1-7.1c-3.9,0-7.1,3.2-7.1,7.1
			C560.2,983.1,563.4,986.3,567.3,986.3L567.3,986.3z M301.8,371.2c3.9,0,7.1-3.2,7.1-7.1c0-3.9-3.2-7.1-7.1-7.1
			c-3.9,0-7.1,3.2-7.1,7.1C294.7,368,297.9,371.2,301.8,371.2L301.8,371.2z M301.8,448.6c3.9,0,7.1-3.2,7.1-7.1
			c0-3.9-3.2-7.1-7.1-7.1c-3.9,0-7.1,3.2-7.1,7.1C294.7,445.5,297.9,448.6,301.8,448.6L301.8,448.6z M301.8,456.2
			c3.9,0,7.1-3.2,7.1-7.1c0-3.9-3.2-7.1-7.1-7.1c-3.9,0-7.1,3.2-7.1,7.1C294.7,453.1,297.9,456.2,301.8,456.2L301.8,456.2z
			 M302.3,51.7c3.9,0,7.1-3.2,7.1-7.1s-3.2-7.1-7.1-7.1c-3.9,0-7.1,3.2-7.1,7.1S298.4,51.7,302.3,51.7L302.3,51.7z M301.8,206.6
			c3.9,0,7.1-3.2,7.1-7.1c0-3.9-3.2-7.1-7.1-7.1c-3.9,0-7.1,3.2-7.1,7.1C294.7,203.5,297.9,206.6,301.8,206.6L301.8,206.6z
			 M301.8,214.2c3.9,0,7.1-3.2,7.1-7.1c0-3.9-3.2-7.1-7.1-7.1c-3.9,0-7.1,3.2-7.1,7.1C294.7,211.1,297.9,214.2,301.8,214.2
			L301.8,214.2z"/>
	</g>
	<path class="st8" d="M301.8,292.2c3.9,0,7.1-3.2,7.1-7.1c0-3.9-3.2-7.1-7.1-7.1c-3.9,0-7.1,3.2-7.1,7.1
		C294.7,289,297.9,292.2,301.8,292.2L301.8,292.2z"/>
	<path class="st3" d="M301.8,613.2c3.9,0,7.1-3.2,7.1-7.1c0-3.9-3.2-7.1-7.1-7.1c-3.9,0-7.1,3.2-7.1,7.1
		C294.7,610,297.9,613.2,301.8,613.2L301.8,613.2z M301.8,534.2c3.9,0,7.1-3.2,7.1-7.1c0-3.9-3.2-7.1-7.1-7.1
		c-3.9,0-7.1,3.2-7.1,7.1C294.7,531,297.9,534.2,301.8,534.2L301.8,534.2z M301.8,690.6c3.9,0,7.1-3.2,7.1-7.1s-3.2-7.1-7.1-7.1
		c-3.9,0-7.1,3.2-7.1,7.1S297.9,690.6,301.8,690.6L301.8,690.6z M301.8,698.2c3.9,0,7.1-3.2,7.1-7.1c0-3.9-3.2-7.1-7.1-7.1
		c-3.9,0-7.1,3.2-7.1,7.1C294.7,695.1,297.9,698.2,301.8,698.2L301.8,698.2z M301.8,775.2c3.9,0,7.1-3.2,7.1-7.1
		c0-3.9-3.2-7.1-7.1-7.1c-3.9,0-7.1,3.2-7.1,7.1C294.7,772,297.9,775.2,301.8,775.2L301.8,775.2z M301.8,931.6
		c3.9,0,7.1-3.2,7.1-7.1c0-3.9-3.2-7.1-7.1-7.1c-3.9,0-7.1,3.2-7.1,7.1C294.7,928.5,297.9,931.6,301.8,931.6L301.8,931.6z
		 M301.8,939.2c3.9,0,7.1-3.2,7.1-7.1s-3.2-7.1-7.1-7.1c-3.9,0-7.1,3.2-7.1,7.1S297.9,939.2,301.8,939.2L301.8,939.2z M474.7,357
		c3.9,0,7.1-3.2,7.1-7.1c0-3.9-3.2-7.1-7.1-7.1c-3.9,0-7.1,3.2-7.1,7.1C467.6,353.8,470.8,357,474.7,357L474.7,357z M474.7,434.5
		c3.9,0,7.1-3.2,7.1-7.1s-3.2-7.1-7.1-7.1c-3.9,0-7.1,3.2-7.1,7.1S470.8,434.5,474.7,434.5L474.7,434.5z M474.7,442.1
		c3.9,0,7.1-3.2,7.1-7.1c0-3.9-3.2-7.1-7.1-7.1c-3.9,0-7.1,3.2-7.1,7.1C467.6,438.9,470.8,442.1,474.7,442.1L474.7,442.1z
		 M474.7,114.5c3.9,0,7.1-3.2,7.1-7.1s-3.2-7.1-7.1-7.1c-3.9,0-7.1,3.2-7.1,7.1S470.8,114.5,474.7,114.5L474.7,114.5z M474.7,192.5
		c3.9,0,7.1-3.2,7.1-7.1c0-3.9-3.2-7.1-7.1-7.1c-3.9,0-7.1,3.2-7.1,7.1C467.6,189.3,470.8,192.5,474.7,192.5L474.7,192.5z
		 M474.7,200.1c3.9,0,7.1-3.2,7.1-7.1c0-3.9-3.2-7.1-7.1-7.1c-3.9,0-7.1,3.2-7.1,7.1C467.6,196.9,470.8,200.1,474.7,200.1
		L474.7,200.1z M474.7,278c3.9,0,7.1-3.2,7.1-7.1c0-3.9-3.2-7.1-7.1-7.1c-3.9,0-7.1,3.2-7.1,7.1C467.6,274.9,470.8,278,474.7,278
		L474.7,278z M474.7,520c3.9,0,7.1-3.2,7.1-7.1c0-3.9-3.2-7.1-7.1-7.1c-3.9,0-7.1,3.2-7.1,7.1C467.6,516.9,470.8,520,474.7,520
		L474.7,520z M474.7,676.5c3.9,0,7.1-3.2,7.1-7.1s-3.2-7.1-7.1-7.1c-3.9,0-7.1,3.2-7.1,7.1S470.8,676.5,474.7,676.5L474.7,676.5z
		 M474.7,684.1c3.9,0,7.1-3.2,7.1-7.1c0-3.9-3.2-7.1-7.1-7.1c-3.9,0-7.1,3.2-7.1,7.1C467.6,680.9,470.8,684.1,474.7,684.1
		L474.7,684.1z M474.7,840c3.9,0,7.1-3.2,7.1-7.1c0-3.9-3.2-7.1-7.1-7.1c-3.9,0-7.1,3.2-7.1,7.1C467.6,836.8,470.8,840,474.7,840
		L474.7,840z M474.7,761c3.9,0,7.1-3.2,7.1-7.1c0-3.9-3.2-7.1-7.1-7.1c-3.9,0-7.1,3.2-7.1,7.1C467.6,757.8,470.8,761,474.7,761
		L474.7,761z M474.7,917.5c3.9,0,7.1-3.2,7.1-7.1c0-3.9-3.2-7.1-7.1-7.1c-3.9,0-7.1,3.2-7.1,7.1
		C467.6,914.3,470.8,917.5,474.7,917.5L474.7,917.5z M474.7,925.1c3.9,0,7.1-3.2,7.1-7.1c0-3.9-3.2-7.1-7.1-7.1
		c-3.9,0-7.1,3.2-7.1,7.1C467.6,921.9,470.8,925.1,474.7,925.1L474.7,925.1z M651.6,332.2c3.9,0,7.1-3.2,7.1-7.1s-3.2-7.1-7.1-7.1
		c-3.9,0-7.1,3.2-7.1,7.1S647.7,332.2,651.6,332.2L651.6,332.2z M651.6,409.7c3.9,0,7.1-3.2,7.1-7.1c0-3.9-3.2-7.1-7.1-7.1
		c-3.9,0-7.1,3.2-7.1,7.1C644.5,406.5,647.7,409.7,651.6,409.7L651.6,409.7z M651.6,417.3c3.9,0,7.1-3.2,7.1-7.1s-3.2-7.1-7.1-7.1
		c-3.9,0-7.1,3.2-7.1,7.1S647.7,417.3,651.6,417.3L651.6,417.3z M651.6,89.7c3.9,0,7.1-3.2,7.1-7.1s-3.2-7.1-7.1-7.1
		c-3.9,0-7.1,3.2-7.1,7.1S647.7,89.7,651.6,89.7L651.6,89.7z M651.6,253.2c3.9,0,7.1-3.2,7.1-7.1c0-3.9-3.2-7.1-7.1-7.1
		c-3.9,0-7.1,3.2-7.1,7.1C644.5,250,647.7,253.2,651.6,253.2L651.6,253.2z M651.6,574.2c3.9,0,7.1-3.2,7.1-7.1
		c0-3.9-3.2-7.1-7.1-7.1c-3.9,0-7.1,3.2-7.1,7.1C644.5,571,647.7,574.2,651.6,574.2L651.6,574.2z M651.6,495.2
		c3.9,0,7.1-3.2,7.1-7.1s-3.2-7.1-7.1-7.1c-3.9,0-7.1,3.2-7.1,7.1S647.7,495.2,651.6,495.2L651.6,495.2z M651.6,651.7
		c3.9,0,7.1-3.2,7.1-7.1c0-3.9-3.2-7.1-7.1-7.1c-3.9,0-7.1,3.2-7.1,7.1C644.5,648.5,647.7,651.7,651.6,651.7L651.6,651.7z
		 M651.6,659.3c3.9,0,7.1-3.2,7.1-7.1c0-3.9-3.2-7.1-7.1-7.1c-3.9,0-7.1,3.2-7.1,7.1C644.5,656.1,647.7,659.3,651.6,659.3
		L651.6,659.3z M651.6,815.2c3.9,0,7.1-3.2,7.1-7.1c0-3.9-3.2-7.1-7.1-7.1c-3.9,0-7.1,3.2-7.1,7.1
		C644.5,812,647.7,815.2,651.6,815.2L651.6,815.2z M651.6,736.2c3.9,0,7.1-3.2,7.1-7.1c0-3.9-3.2-7.1-7.1-7.1
		c-3.9,0-7.1,3.2-7.1,7.1C644.5,733,647.7,736.2,651.6,736.2L651.6,736.2z M651.6,892.7c3.9,0,7.1-3.2,7.1-7.1
		c0-3.9-3.2-7.1-7.1-7.1c-3.9,0-7.1,3.2-7.1,7.1C644.5,889.5,647.7,892.7,651.6,892.7L651.6,892.7z M651.6,900.2
		c3.9,0,7.1-3.2,7.1-7.1c0-3.9-3.2-7.1-7.1-7.1c-3.9,0-7.1,3.2-7.1,7.1C644.5,897.1,647.7,900.2,651.6,900.2L651.6,900.2z"/>
	<path class="st8" d="M747.8,449.2c3.9,0,7.1-3.2,7.1-7.1c0-3.9-3.2-7.1-7.1-7.1c-3.9,0-7.1,3.2-7.1,7.1
		C740.7,446,743.9,449.2,747.8,449.2L747.8,449.2z"/>
	<path class="st3" d="M747.8,449.2c3.9,0,7.1-3.2,7.1-7.1c0-3.9-3.2-7.1-7.1-7.1c-3.9,0-7.1,3.2-7.1,7.1
		C740.7,446,743.9,449.2,747.8,449.2L747.8,449.2z M747.8,526.6c3.9,0,7.1-3.2,7.1-7.1c0-3.9-3.2-7.1-7.1-7.1
		c-3.9,0-7.1,3.2-7.1,7.1C740.7,523.4,743.9,526.6,747.8,526.6L747.8,526.6z M747.8,534.2c3.9,0,7.1-3.2,7.1-7.1
		c0-3.9-3.2-7.1-7.1-7.1c-3.9,0-7.1,3.2-7.1,7.1C740.7,531,743.9,534.2,747.8,534.2L747.8,534.2z M747.8,206.6
		c3.9,0,7.1-3.2,7.1-7.1c0-3.9-3.2-7.1-7.1-7.1c-3.9,0-7.1,3.2-7.1,7.1C740.7,203.5,743.9,206.6,747.8,206.6L747.8,206.6z
		 M748.3,45.1c3.9,0,7.1-3.2,7.1-7.1c0-3.9-3.2-7.1-7.1-7.1c-3.9,0-7.1,3.2-7.1,7.1C741.2,42,744.4,45.1,748.3,45.1L748.3,45.1z
		 M748.3,52.7c3.9,0,7.1-3.2,7.1-7.1c0-3.9-3.2-7.1-7.1-7.1c-3.9,0-7.1,3.2-7.1,7.1C741.2,49.6,744.4,52.7,748.3,52.7L748.3,52.7z
		 M748.3,129.7c3.9,0,7.1-3.2,7.1-7.1c0-3.9-3.2-7.1-7.1-7.1c-3.9,0-7.1,3.2-7.1,7.1C741.2,126.5,744.4,129.7,748.3,129.7
		L748.3,129.7z M747.8,284.6c3.9,0,7.1-3.2,7.1-7.1c0-3.9-3.2-7.1-7.1-7.1c-3.9,0-7.1,3.2-7.1,7.1
		C740.7,281.4,743.9,284.6,747.8,284.6L747.8,284.6z M747.8,292.2c3.9,0,7.1-3.2,7.1-7.1c0-3.9-3.2-7.1-7.1-7.1
		c-3.9,0-7.1,3.2-7.1,7.1C740.7,289,743.9,292.2,747.8,292.2L747.8,292.2z M747.8,370.2c3.9,0,7.1-3.2,7.1-7.1
		c0-3.9-3.2-7.1-7.1-7.1c-3.9,0-7.1,3.2-7.1,7.1C740.7,367,743.9,370.2,747.8,370.2L747.8,370.2z M747.8,691.2
		c3.9,0,7.1-3.2,7.1-7.1c0-3.9-3.2-7.1-7.1-7.1c-3.9,0-7.1,3.2-7.1,7.1C740.7,688,743.9,691.2,747.8,691.2L747.8,691.2z
		 M747.8,768.6c3.9,0,7.1-3.2,7.1-7.1c0-3.9-3.2-7.1-7.1-7.1c-3.9,0-7.1,3.2-7.1,7.1C740.7,765.4,743.9,768.6,747.8,768.6
		L747.8,768.6z M747.8,776.2c3.9,0,7.1-3.2,7.1-7.1c0-3.9-3.2-7.1-7.1-7.1c-3.9,0-7.1,3.2-7.1,7.1
		C740.7,773,743.9,776.2,747.8,776.2L747.8,776.2z M747.8,932.1c3.9,0,7.1-3.2,7.1-7.1s-3.2-7.1-7.1-7.1c-3.9,0-7.1,3.2-7.1,7.1
		S743.9,932.1,747.8,932.1L747.8,932.1z M747.8,1009.6c3.9,0,7.1-3.2,7.1-7.1c0-3.9-3.2-7.1-7.1-7.1c-3.9,0-7.1,3.2-7.1,7.1
		C740.7,1006.4,743.9,1009.6,747.8,1009.6L747.8,1009.6z M747.8,1017.2c3.9,0,7.1-3.2,7.1-7.1c0-3.9-3.2-7.1-7.1-7.1
		c-3.9,0-7.1,3.2-7.1,7.1C740.7,1014,743.9,1017.2,747.8,1017.2L747.8,1017.2z M567.3,491.2c3.9,0,7.1-3.2,7.1-7.1
		c0-3.9-3.2-7.1-7.1-7.1c-3.9,0-7.1,3.2-7.1,7.1C560.2,488,563.4,491.2,567.3,491.2L567.3,491.2z M567.3,498.8
		c3.9,0,7.1-3.2,7.1-7.1s-3.2-7.1-7.1-7.1c-3.9,0-7.1,3.2-7.1,7.1S563.4,498.8,567.3,498.8L567.3,498.8z M476.2,1001.5
		c3.9,0,7.1-3.2,7.1-7.1c0-3.9-3.2-7.1-7.1-7.1c-3.9,0-7.1,3.2-7.1,7.1C469.1,998.3,472.3,1001.5,476.2,1001.5L476.2,1001.5z"/>
</g>
</svg>
