<?xml version="1.0" encoding="utf-8"?>
<!-- Generator: Adobe Illustrator 22.1.0, SVG Export Plug-In . SVG Version: 6.00 Build 0)  -->
<svg version="1.1" id="Layer_1" xmlns="http://www.w3.org/2000/svg" xmlns:xlink="http://www.w3.org/1999/xlink" x="0px" y="0px"
	 viewBox="0 0 100 80" style="enable-background:new 0 0 100 80;" xml:space="preserve">
<style type="text/css">
	.st0{fill:#010101;}
</style>
<g>
	<path class="st0" d="M5.1,70.7v-4.3l5.5-5.4c13.3-12.6,19.3-19.4,19.4-27.2c0-5.3-2.6-10.2-10.3-10.2c-4.7,0-8.6,2.4-11,4.4l-2.2-5
		c3.6-3,8.7-5.3,14.7-5.3c11.2,0,15.9,7.7,15.9,15.1c0,9.6-7,17.4-17.9,27.9l-4.2,3.8v0.2h23.4v5.8H5.1z"/>
</g>
<g>
	<path d="M41.2,20.3c1.8-1.2,5.3-2.5,9.2-2.5c6.9,0,9.8,3.7,9.8,7.5c0,3.2-2.3,5.9-6.2,7.2v0.2c4.4,0.6,7.4,3.7,7.4,7.8
		c0,5-4.5,9.4-12.6,9.4c-3.8,0-7.4-1-9.1-2.2l1.4-4c1.3,0.9,4.4,2.1,7.4,2.1c4.9,0,7-2.9,7-5.4c0-4-4.2-5.6-8.5-5.6h-2.2V31h2.2
		c3,0,7.2-1.4,7.3-5.1c0-1.9-1.4-3.9-5-3.9c-2.9,0-5.5,1.2-6.8,2.1L41.2,20.3z"/>
	<path d="M50.8,71.6l30.3-53.8h4.6L55.3,71.6H50.8z"/>
	<path d="M74,67.7l5-4.7c6.6-6,10.1-9.8,10.1-13.8c0-3-1.9-5.6-6.1-5.6c-2.8,0-5.2,1.4-6.7,2.5l-1.7-3.6c2.2-1.8,5.8-3.4,9.8-3.4
		c7.5,0,10.6,4.7,10.6,9c0,6-4.6,10.4-10.6,15.8l-2.5,2.2v0.2h13.7v4.4H74V67.7z"/>
</g>
</svg>
