<?xml version="1.0" encoding="utf-8"?>
<!-- Generator: Adobe Illustrator 22.1.0, SVG Export Plug-In . SVG Version: 6.00 Build 0)  -->
<svg version="1.1" id="Layer_1" xmlns="http://www.w3.org/2000/svg" xmlns:xlink="http://www.w3.org/1999/xlink" x="0px" y="0px"
	 viewBox="0 0 100 80" style="enable-background:new 0 0 100 80;" xml:space="preserve">
<g>
	<path d="M8.7,46.5l5-4.7c6.6-6,10.1-9.8,10.1-13.8c0-3-1.9-5.6-6.1-5.6c-2.8,0-5.2,1.4-6.7,2.5l-1.7-3.6c2.2-1.8,5.8-3.4,9.8-3.4
		c7.5,0,10.6,4.7,10.6,9c0,6-4.6,10.4-10.6,15.8l-2.5,2.2V45h13.7v4.4H8.7V46.5z"/>
	<path d="M20.1,71.6l30.3-53.8h4.6L24.5,71.6H20.1z"/>
	<path d="M44.5,41.6c1.8-1.2,5.3-2.5,9.2-2.5c6.9,0,9.8,3.7,9.8,7.5c0,3.2-2.3,5.9-6.2,7.2V54c4.4,0.6,7.4,3.7,7.4,7.8
		c0,5-4.5,9.4-12.6,9.4c-3.8,0-7.4-1-9.1-2.2l1.4-4c1.3,0.9,4.4,2.1,7.4,2.1c4.9,0,7-2.9,7-5.4c0-4-4.2-5.6-8.5-5.6h-2.2v-3.7h2.2
		c3,0,7.2-1.4,7.3-5.1c0-1.9-1.4-3.9-5-3.9c-2.9,0-5.5,1.2-6.8,2.1L44.5,41.6z"/>
</g>
</svg>
