<?xml version="1.0" encoding="utf-8"?>
<!-- Generator: Adobe Illustrator 22.1.0, SVG Export Plug-In . SVG Version: 6.00 Build 0)  -->
<svg version="1.1" id="Layer_1" xmlns="http://www.w3.org/2000/svg" xmlns:xlink="http://www.w3.org/1999/xlink" x="0px" y="0px"
	 viewBox="0 0 50 80" style="enable-background:new 0 0 50 80;" xml:space="preserve">
<g>
	<path d="M18.2,33.8h0.7c4.7,0,8.3-1,10.8-2.9c2.5-2,3.7-4.8,3.7-8.5c0-3.4-1.2-6.1-3.6-8.2c-2.4-2.1-5.6-3.1-9.5-3.1
		c-3.9,0-8.3,1.2-13.1,3.7V4.4c4.4-2.2,9.2-3.3,14.4-3.3c7,0,12.5,1.8,16.5,5.5c4,3.6,6,8.6,6,14.9c0,3.8-0.8,7-2.3,9.7
		c-1.6,2.6-4,4.9-7.4,6.7c3,1.2,5.1,2.6,6.5,4.3c1.4,1.7,2.4,3.7,3.2,6.1c0.8,2.4,1.1,4.9,1.1,7.6c0,6.6-2.2,12.1-6.6,16.4
		c-4.4,4.3-10,6.5-16.7,6.5c-5.7,0-11.3-1.4-16.6-4.2V62.8c5.7,3.6,11.3,5.4,16.6,5.4c3.6,0,6.6-1.1,8.8-3.3c2.2-2.2,3.3-5,3.3-8.6
		c0-3-0.9-5.6-2.8-7.9c-1.1-1.3-2.3-2.2-3.6-2.8c-1.3-0.6-4.2-1.2-8.5-1.7l-1-0.1V33.8z"/>
</g>
</svg>
