<?xml version="1.0" encoding="utf-8"?>
<!-- Generator: Adobe Illustrator 22.1.0, SVG Export Plug-In . SVG Version: 6.00 Build 0)  -->
<svg version="1.1" id="Layer_1" xmlns="http://www.w3.org/2000/svg" xmlns:xlink="http://www.w3.org/1999/xlink" x="0px" y="0px"
	 viewBox="0 0 100 80" style="enable-background:new 0 0 100 80;" xml:space="preserve">
<style type="text/css">
	.st0{fill:#010101;}
</style>
<g>
	<path class="st0" d="M20.3,25.3h-0.2l-9,4.9l-1.4-5.4l11.4-6.1h6v52h-6.8V25.3z"/>
</g>
<g>
	<path d="M47.5,49.4V23.1h-0.2l-5.8,2.8l-0.9-4.2l7.5-3.5h4.9v31.2H47.5z"/>
	<path d="M45.9,71.6l30.3-53.8h4.6L50.4,71.6H45.9z"/>
	<path d="M91.3,46.9c0,2.6-1.4,5.4-5,7v0.2c3.6,1.4,6.2,4,6.2,7.8c0,5.5-4.7,9.2-11.4,9.2c-7.2,0-11-4.1-11-8.5c0-3.8,2.3-6.4,6.1-8
		v-0.2c-3.4-1.6-5-4.2-5-7c0-5,4.5-8.4,10.3-8.4C88.1,39.1,91.3,42.9,91.3,46.9z M87.1,62.3c0-3.4-2.6-5-6.3-6.1
		c-3.4,1-5.3,3.1-5.3,5.8c0,2.8,2.2,5.4,5.8,5.4C84.8,67.3,87.1,65.2,87.1,62.3z M76.3,47.3c0,2.8,2.2,4.3,5.6,5.2
		c2.5-0.7,4.4-2.5,4.4-5c0-2.2-1.4-4.6-4.9-4.6C78,42.8,76.3,44.9,76.3,47.3z"/>
</g>
</svg>
