<?xml version="1.0" encoding="utf-8"?>
<!-- Generator: Adobe Illustrator 22.1.0, SVG Export Plug-In . SVG Version: 6.00 Build 0)  -->
<svg version="1.1" id="Layer_1" xmlns="http://www.w3.org/2000/svg" xmlns:xlink="http://www.w3.org/1999/xlink" x="0px" y="0px"
	 viewBox="0 0 100 80" style="enable-background:new 0 0 100 80;" xml:space="preserve">
<style type="text/css">
	.st0{fill:#010101;}
</style>
<g>
	<path class="st0" d="M5.1,70.7v-4.3l5.5-5.4c13.3-12.6,19.3-19.4,19.4-27.2c0-5.3-2.6-10.2-10.3-10.2c-4.7,0-8.6,2.4-11,4.4l-2.2-5
		c3.6-3,8.7-5.3,14.7-5.3c11.2,0,15.9,7.7,15.9,15.1c0,9.6-7,17.4-17.9,27.9l-4.2,3.8v0.2h23.4v5.8H5.1z"/>
</g>
<g>
	<path d="M49.2,49.4V23.1h-0.2l-5.8,2.8l-0.9-4.2l7.5-3.5h4.9v31.2H49.2z M50,71.6l30.4-53.8h4.5L54.5,71.6H50z M86.7,70.7v-8.2
		H71.5v-3.2l14.2-19.9h6.3v19.2h4.4v3.9h-4.4v8.2H86.7z M86.7,49.1c0-1.8,0.2-3.4,0.2-5h-0.2c-1,1.8-1.8,3.3-2.7,4.7l-6.9,9.6v0.2
		h9.5V49.1z"/>
</g>
</svg>
