<?xml version="1.0" encoding="utf-8"?>
<!-- Generator: Adobe Illustrator 22.1.0, SVG Export Plug-In . SVG Version: 6.00 Build 0)  -->
<svg version="1.1" id="Layer_1" xmlns="http://www.w3.org/2000/svg" xmlns:xlink="http://www.w3.org/1999/xlink" x="0px" y="0px"
	 viewBox="0 0 100 80" style="enable-background:new 0 0 100 80;" xml:space="preserve">
<style type="text/css">
	.st0{fill:#010101;}
</style>
<g>
	<path class="st0" d="M6.7,62.6c2,1.3,6.6,3.3,11.5,3.3c9,0,11.8-5.8,11.8-10.1c-0.1-7.3-6.6-10.4-13.4-10.4h-3.9v-5.3h3.9
		c5.1,0,11.6-2.6,11.6-8.8c0-4.2-2.6-7.8-9.1-7.8c-4.2,0-8.2,1.8-10.4,3.4l-1.8-5.1c2.7-2,8-4,13.6-4c10.2,0,14.9,6.1,14.9,12.4
		c0,5.4-3.2,9.9-9.6,12.2v0.2c6.4,1.3,11.6,6.1,11.6,13.4c0,8.3-6.5,15.6-19,15.6c-5.8,0-11-1.8-13.5-3.5L6.7,62.6z"/>
</g>
</svg>
