<?xml version="1.0" encoding="utf-8"?>
<!-- Generator: Adobe Illustrator 22.1.0, SVG Export Plug-In . SVG Version: 6.00 Build 0)  -->
<svg version="1.1" id="Layer_1" xmlns="http://www.w3.org/2000/svg" xmlns:xlink="http://www.w3.org/1999/xlink" x="0px" y="0px"
	 viewBox="0 0 100 80" style="enable-background:new 0 0 100 80;" xml:space="preserve">
<g>
	<path d="M10.9,20.3c1.8-1.2,5.3-2.5,9.2-2.5c6.9,0,9.8,3.7,9.8,7.5c0,3.2-2.3,5.9-6.1,7.2v0.2c4.3,0.6,7.4,3.7,7.4,7.8
		c0,5-4.4,9.4-12.6,9.4c-3.9,0-7.4-1-9.2-2.2l1.4-4c1.3,0.9,4.4,2.1,7.4,2.1c5,0,7-2.9,7-5.4c-0.1-4-4.3-5.6-8.5-5.6h-2.2V31h2.2
		c3,0,7.3-1.4,7.3-5.1c0-1.9-1.4-3.9-5-3.9c-2.9,0-5.5,1.2-6.8,2.1L10.9,20.3z M20.9,71.6l30.4-53.8h4.5L25.4,71.6H20.9z M55.5,70.7
		v-8.2H40.4v-3.2l14.2-19.9h6.3v19.2h4.5v3.9h-4.5v8.2H55.5z M55.5,49.1c0-1.8,0.2-3.4,0.2-5h-0.2c-1,1.8-1.8,3.3-2.7,4.7l-7,9.6
		l0.1,0.2h9.5V49.1z"/>
</g>
</svg>
