<?xml version="1.0" encoding="utf-8"?>
<!-- Generator: Adobe Illustrator 22.1.0, SVG Export Plug-In . SVG Version: 6.00 Build 0)  -->
<svg version="1.1" id="Layer_1" xmlns="http://www.w3.org/2000/svg" xmlns:xlink="http://www.w3.org/1999/xlink" x="0px" y="0px"
	 viewBox="0 0 100 80" style="enable-background:new 0 0 100 80;" xml:space="preserve">
<g>
	<path d="M18.9,25.3h-0.2l-9,4.9l-1.4-5.4l11.4-6.1h6v52h-6.8V25.3z"/>
</g>
<g>
	<path d="M53.5,49.4V23.1h-0.2l-5.8,2.8l-0.9-4.2l7.5-3.5h4.9v31.2H53.5z"/>
	<path d="M51.9,71.6l30.3-53.8h4.6L56.3,71.6H51.9z"/>
	<path d="M76.3,41.6c1.8-1.2,5.3-2.5,9.2-2.5c6.9,0,9.8,3.7,9.8,7.5c0,3.2-2.3,5.9-6.2,7.2V54c4.4,0.6,7.4,3.7,7.4,7.8
		c0,5-4.5,9.4-12.6,9.4c-3.8,0-7.4-1-9.1-2.2l1.4-4c1.3,0.9,4.4,2.1,7.4,2.1c4.9,0,7-2.9,7-5.4c0-4-4.2-5.6-8.5-5.6H80v-3.7h2.2
		c3,0,7.2-1.4,7.3-5.1c0-1.9-1.4-3.9-5-3.9c-2.9,0-5.5,1.2-6.8,2.1L76.3,41.6z"/>
</g>
</svg>
