<?xml version="1.0" encoding="utf-8"?>
<!-- Generator: Adobe Illustrator 22.1.0, SVG Export Plug-In . SVG Version: 6.00 Build 0)  -->
<svg version="1.1" id="Layer_1" xmlns="http://www.w3.org/2000/svg" xmlns:xlink="http://www.w3.org/1999/xlink" x="0px" y="0px"
	 viewBox="0 0 100 80" style="enable-background:new 0 0 100 80;" xml:space="preserve">
<style type="text/css">
	.st0{fill:#010101;}
</style>
<g>
	<path class="st0" d="M20.3,25.3h-0.2l-9,4.9l-1.4-5.4l11.4-6.1h6v52h-6.8V25.3z"/>
</g>
<g>
	<path d="M48.1,49.4V23.1h-0.2l-5.8,2.8l-0.9-4.2l7.4-3.5h5v31.2H48.1z M48.5,71.6l30.3-53.8h4.6L53,71.6H48.5z M74.2,67.7l5-4.7
		c6.6-6,10.1-9.8,10.1-13.8c0-3-1.9-5.6-6.1-5.6c-2.8,0-5.2,1.4-6.7,2.5l-1.7-3.6c2.2-1.8,5.8-3.4,9.8-3.4c7.6,0,10.6,4.7,10.6,9
		c0,6-4.6,10.4-10.6,15.8l-2.5,2.2v0.2h13.7v4.4H74.2V67.7z"/>
</g>
</svg>
