<?xml version="1.0" encoding="utf-8"?>
<!-- Generator: Adobe Illustrator 22.1.0, SVG Export Plug-In . SVG Version: 6.00 Build 0)  -->
<svg version="1.1" id="Layer_1" xmlns="http://www.w3.org/2000/svg" xmlns:xlink="http://www.w3.org/1999/xlink" x="0px" y="0px"
	 viewBox="0 0 600 300" style="enable-background:new 0 0 600 300;" xml:space="preserve">
<style type="text/css">
	.st0{fill:#D3CAB6;}
	.st1{fill:#FFFFFF;}
	.st2{fill:none;stroke:#000000;stroke-miterlimit:10;}
	.st3{fill:none;}
	.st4{font-family:'ArialMT';}
	.st5{font-size:10.8921px;}
	.st6{font-size:12px;}
	.st7{font-family:'Rift-Medium';}
	.st8{font-size:35px;}
	.st9{fill:none;stroke:#000000;stroke-width:2;stroke-miterlimit:10;}
	.st10{fill:#B23131;}
	.st11{font-family:'Rift-BoldItalic';}
	.st12{font-size:26px;}
	.st13{font-size:50px;}
	.st14{fill:#FCF0A6;}
	.st15{fill:none;stroke:#FDE56B;stroke-miterlimit:10;}
	.st16{fill:#D1C9B5;}
	.st17{fill:#F7F7F7;}
	.st18{fill:none;stroke:#A0A0A0;stroke-miterlimit:10;}
</style>
<g>
	
		<image style="overflow:visible;opacity:0.1;enable-background:new    ;" width="1286" height="823" xlink:href="983BD4062B7F22CC.png"  transform="matrix(0.2152 0 0 0.2152 13.5441 51.6589)">
	</image>
	<g>
		<rect x="21.4" y="54.7" class="st0" width="261" height="160.3"/>
	</g>
</g>
<rect x="21.4" y="72.2" class="st1" width="21.1" height="19.2"/>
<line class="st2" x1="42.5" y1="101.8" x2="83.7" y2="89"/>
<line class="st2" x1="42.5" y1="89" x2="42.5" y2="102.1"/>
<line class="st2" x1="125" y1="101.8" x2="83.7" y2="89"/>
<line class="st2" x1="42.5" y1="55.4" x2="42.5" y2="89"/>
<rect x="125" y="72.2" class="st1" width="157.5" height="19.2"/>
<path id="SVGID_x5F_1_x5F_" class="st3" d="M53,88.1l72.2-14.3"/>
<text transform="matrix(1 0 0 1 60.8997 86.525)" class="st4 st5"> </text>
<text class="st4 st6"> </text>
<rect x="33.2" y="108.9" class="st1" width="236.3" height="96"/>
<line class="st2" x1="125" y1="55.4" x2="125" y2="102.2"/>
<g>
	<g>
		<rect x="320.6" y="121.7" class="st3" width="28.8" height="28.5"/>
		<text transform="matrix(1 0 0 1 320.596 146.1864)" class="st7 st8">3</text>
		<line class="st9" x1="319.2" y1="150.2" x2="337" y2="150.2"/>
		<rect x="320.6" y="156" class="st3" width="28.8" height="32"/>
		<text transform="matrix(1 0 0 1 320.596 180.4729)" class="st7 st8">2</text>
	</g>
	<rect x="301.2" y="140.5" class="st3" width="28.8" height="28.5"/>
	<text transform="matrix(1 0 0 1 301.2 165.0648)" class="st7 st8">x</text>
</g>
<text transform="matrix(1 0 0 1 93.7428 182.9309)" class="st10 st11 st12"> cup Butter</text>
<text transform="matrix(1 0 0 1 144.7189 155.0653)" class="st10 st11 st13">1</text>
<g>
	<g>
		<g>
			
				<image style="overflow:visible;opacity:0.1;enable-background:new    ;" width="223" height="77" xlink:href="983BD4062B7F22CD.png"  transform="matrix(0.9946 0 0 0.9946 366.62 116.0368)">
			</image>
			<g>
				<path class="st14" d="M554.7,169.3H388.2c-6.6,0-12-5.4-12-12v-20c0-6.6,5.4-12,12-12h166.5c6.6,0,12,5.4,12,12v20
					C566.7,163.9,561.3,169.3,554.7,169.3z"/>
				<path class="st15" d="M554.7,169.3H388.2c-6.6,0-12-5.4-12-12v-20c0-6.6,5.4-12,12-12h166.5c6.6,0,12,5.4,12,12v20
					C566.7,163.9,561.3,169.3,554.7,169.3z"/>
			</g>
		</g>
		<g>
			
				<image style="overflow:visible;opacity:0.1;enable-background:new    ;" width="265" height="38" xlink:href="983BD4062B7F22CB.png"  transform="matrix(0.9958 0 0 0.9958 341.5789 158.9096)">
			</image>
			<g>
				<path class="st16" d="M583.4,174.4H355.6c-1.4,0-2.5-1.1-2.5-2.5l0,0c0-1.4,1.1-2.5,2.5-2.5h227.8c1.4,0,2.5,1.1,2.5,2.5l0,0
					C586,173.3,584.8,174.4,583.4,174.4z"/>
			</g>
		</g>
		<g>
			
				<image style="overflow:visible;opacity:0.1;enable-background:new    ;" width="274" height="35" xlink:href="983BD4062B7F22D4.png"  transform="matrix(0.996 0 0 0.996 338.5735 164.9002)">
			</image>
			<g>
				<path class="st16" d="M590.2,178h-238c-1,0-1.8-0.8-1.8-1.8l0,0c0-1,0.8-1.8,1.8-1.8h238c1,0,1.8,0.8,1.8,1.8l0,0
					C592,177.2,591.2,178,590.2,178z"/>
			</g>
		</g>
	</g>
	<text transform="matrix(1 0 0 1 431.6498 165.0757)" class="st17 st11 st13">= ?</text>
	<text transform="matrix(1 0 0 1 431.6498 165.0757)" class="st18 st11 st13">= ?</text>
</g>
<line class="st3" x1="68.6" y1="156.5" x2="279.4" y2="156.5"/>
<path id="SVGID_x5F_1_x5F__1_" class="st3" d="M53,89.5l77.5-15.4"/>
<text><textPath  xlink:href="#SVGID_x5F_1_x5F__1_" startOffset="0.3906%">
<tspan  class="st1 st7" style="font-size:26.7133px;">RECIPE</tspan></textPath>
</text>
</svg>
