<?xml version="1.0" encoding="utf-8"?>
<!-- Generator: Adobe Illustrator 22.1.0, SVG Export Plug-In . SVG Version: 6.00 Build 0)  -->
<svg version="1.1" id="Layer_1" xmlns="http://www.w3.org/2000/svg" xmlns:xlink="http://www.w3.org/1999/xlink" x="0px" y="0px"
	 viewBox="0 0 600 300" style="enable-background:new 0 0 600 300;" xml:space="preserve">
<style type="text/css">
	.st0{fill:#D3CAB6;}
	.st1{fill:#FFFFFF;}
	.st2{fill:none;stroke:#000000;stroke-miterlimit:10;}
	.st3{fill:none;}
	.st4{enable-background:new    ;}
	.st5{fill:none;stroke:#000000;stroke-width:2;stroke-miterlimit:10;}
	.st6{fill:#B23131;}
	.st7{fill:#FCF0A6;}
	.st8{fill:none;stroke:#FDE56B;stroke-miterlimit:10;}
	.st9{fill:#D1C9B5;}
	.st10{fill:#F7F7F7;}
	.st11{fill:none;stroke:#A0A0A0;stroke-miterlimit:10;}
</style>
<g>
	<g>
		<rect x="21.4" y="54.7" class="st0" width="261" height="160.3"/>
	</g>
</g>
<rect x="21.4" y="72.2" class="st1" width="21.1" height="19.2"/>
<line class="st2" x1="42.5" y1="101.8" x2="83.7" y2="89"/>
<line class="st2" x1="42.5" y1="89" x2="42.5" y2="102.1"/>
<line class="st2" x1="125" y1="101.8" x2="83.7" y2="89"/>
<line class="st2" x1="42.5" y1="55.4" x2="42.5" y2="89"/>
<rect x="125" y="72.2" class="st1" width="157.5" height="19.2"/>
<path id="SVGID_x5F_1_x5F_" class="st3" d="M53,88.1l72.2-14.3"/>
<rect x="33.2" y="108.9" class="st1" width="236.3" height="96"/>
<line class="st2" x1="125" y1="55.4" x2="125" y2="102.2"/>
<g>
	<g>
		<rect x="320.6" y="121.7" class="st3" width="28.8" height="28.5"/>
		<g class="st4">
			<path d="M330.4,133.4c2.3,0.4,2.6,2.2,2.6,3.5v4.3c0,3.2-1.6,5.2-5,5.2h-1c-3.4,0-5-2-5-5.2v-3.1h2.5v2.7c0,2.5,1.1,3.4,2.9,3.4
				h0.2c1.8,0,2.9-0.9,2.9-3.4V137c0-1.7-1-2.5-2.7-2.5h-2.7v-2.2h2.3c2.1,0,3.1-0.7,3.1-2.8V127c0-2.5-1.1-3.4-2.9-3.4h-0.3
				c-1.8,0-2.9,0.9-2.9,3.4v2.1H322v-2.5c0-3.6,2-5.2,5.3-5.2h0.2c3.4,0,5.3,1.6,5.3,5.2v3C333,131.1,332.6,133.1,330.4,133.4z"/>
		</g>
		<line class="st5" x1="319.2" y1="150.2" x2="337" y2="150.2"/>
		<rect x="320.6" y="156" class="st3" width="28.8" height="32"/>
		<g class="st4">
			<path d="M322.3,160.7c0-3.4,1.8-5,5.3-5h0.1c3.5,0,5.3,1.6,5.3,5v3.5c0,2.5-2.1,4-4.6,6.1c-2.4,2-3.7,3.3-3.7,5.2v2.8h8.3v2.2
				h-10.8v-5.1c0-3.1,2.2-5,4.9-7.1c2.2-1.8,3.5-2.7,3.5-4.4v-2.8c0-2.3-1-3.3-3-3.3c-1.9,0-2.9,1-2.9,3.3v3.1h-2.4L322.3,160.7
				L322.3,160.7z"/>
		</g>
	</g>
	<rect x="301.2" y="140.5" class="st3" width="28.8" height="28.5"/>
	<g class="st4">
		<path d="M309.9,152.5L315,165h-2.7l-4-10.3l-4,10.3h-2.6l5.2-12.6l-4.8-11.9h2.7l3.6,9.6l3.4-9.6h2.6L309.9,152.5z"/>
	</g>
</g>
<g class="st4">
	<path class="st6" d="M107.8,179.3c-0.5,2.8-2.2,3.8-5.3,3.8h-0.1c-2.5,0-4.4-1-3.9-3.8l1.9-10.9c0.5-2.7,2.2-3.8,5.3-3.8h0.1
		c2.5,0,4.4,1.1,3.9,3.8l-0.6,3.3h-3l0.5-2.9c0.2-1.3-0.3-1.7-1.3-1.7s-1.7,0.4-1.9,1.7l-1.8,10c-0.2,1.3,0.3,1.7,1.3,1.7
		s1.6-0.4,1.9-1.7l0.6-3.3h3L107.8,179.3z"/>
	<path class="st6" d="M119.3,179.3c-0.5,2.8-2.2,3.8-5.2,3.8H114c-2.5,0-4.4-1-3.8-3.8l2.5-14.6h3l-2.5,14.1
		c-0.2,1.3,0.3,1.7,1.3,1.7s1.6-0.4,1.8-1.7l2.5-14.1h3L119.3,179.3z"/>
	<path class="st6" d="M133,168.6l-0.6,3.5c-0.5,2.8-2.2,3.8-5.3,3.8h-1.7l-1.2,7h-3l3.2-18.2h4.7C131.6,164.7,133.5,165.8,133,168.6
		z M129.9,169c0.2-1.3-0.4-1.7-1.4-1.7h-1.6l-1,5.9h1.6c1,0,1.7-0.4,2-1.7L129.9,169z"/>
	<path class="st6" d="M145.3,173.5c1.4,0.2,1.9,1.5,1.6,2.9l-0.5,3c-0.4,2.3-2.1,3.6-5.1,3.6h-4.7l3.2-18.2h4.8
		c2.5,0,4.2,1.3,3.7,3.6l-0.4,2.3C147.6,172.2,146.8,173.3,145.3,173.5z M142.8,174.8H141l-1,5.5h1.8c0.9,0,1.5-0.4,1.6-1.4l0.5-2.7
		C144.1,175.2,143.7,174.8,142.8,174.8z M141.5,172.2h1.7c0.9,0,1.5-0.4,1.7-1.4l0.4-2.1c0.2-1-0.3-1.4-1.1-1.4h-1.7L141.5,172.2z"
		/>
	<path class="st6" d="M157.8,179.3c-0.5,2.8-2.2,3.8-5.2,3.8h-0.1c-2.5,0-4.4-1-3.8-3.8l2.5-14.6h3l-2.5,14.1
		c-0.2,1.3,0.3,1.7,1.3,1.7s1.6-0.4,1.8-1.7l2.5-14.1h3L157.8,179.3z"/>
	<path class="st6" d="M170.5,167.4h-3l-2.7,15.5h-3l2.7-15.5h-3l0.5-2.7h9.1L170.5,167.4z"/>
	<path class="st6" d="M180.1,167.4h-3l-2.7,15.5h-3l2.7-15.5h-3l0.5-2.7h9.1L180.1,167.4z"/>
	<path class="st6" d="M178.9,182.9l3.2-18.2h8l-0.5,2.7h-5l-0.9,5h4.2l-0.5,2.7h-4.2l-0.9,5.3h5l-0.5,2.7h-7.9V182.9z"/>
	<path class="st6" d="M200.9,168.6l-0.6,3.2c-0.3,1.8-1.2,2.9-2.5,3.4l1.2,7.7h-3l-1-7.3h-1.6l-1.3,7.3h-3l3.2-18.2h4.7
		C199.5,164.7,201.4,165.8,200.9,168.6z M196.4,167.4h-1.6l-1,5.7h1.6c1,0,1.7-0.4,1.9-1.7l0.4-2.4
		C198.1,167.7,197.4,167.4,196.4,167.4z"/>
</g>
<g class="st4">
	<path class="st6" d="M145.5,155.1l5.5-30.9c1.2-1.1,2.4-2.4,3.1-4.1h3.2l-6.2,35H145.5z"/>
</g>
<g>
	<g>
		<g>
			<g>
				<path class="st7" d="M554.7,169.3H388.2c-6.6,0-12-5.4-12-12v-20c0-6.6,5.4-12,12-12h166.5c6.6,0,12,5.4,12,12v20
					C566.7,163.9,561.3,169.3,554.7,169.3z"/>
				<path class="st8" d="M554.7,169.3H388.2c-6.6,0-12-5.4-12-12v-20c0-6.6,5.4-12,12-12h166.5c6.6,0,12,5.4,12,12v20
					C566.7,163.9,561.3,169.3,554.7,169.3z"/>
			</g>
		</g>
		<g>
			<g>
				<path class="st9" d="M583.4,174.4H355.6c-1.4,0-2.5-1.1-2.5-2.5l0,0c0-1.4,1.1-2.5,2.5-2.5h227.8c1.4,0,2.5,1.1,2.5,2.5l0,0
					C586,173.3,584.8,174.4,583.4,174.4z"/>
			</g>
		</g>
		<g>
			<g>
				<path class="st9" d="M590.2,178h-238c-1,0-1.8-0.8-1.8-1.8l0,0c0-1,0.8-1.8,1.8-1.8h238c1,0,1.8,0.8,1.8,1.8l0,0
					C592,177.2,591.2,178,590.2,178z"/>
			</g>
		</g>
	</g>
	<g class="st4">
		<path class="st10" d="M450.4,153.5h-16.8l0.8-4.3h16.8L450.4,153.5z M451.9,145.2H435l0.8-4.3h16.8L451.9,145.2z"/>
		<path class="st10" d="M468.1,150.9c0.5-2.5,1.5-4.4,4.1-6.5c1-0.8,2.5-2,2.7-3.6l0.6-3.4c0.5-2.4-0.6-3-2.2-3s-2.8,0.6-3.2,3
			l-0.9,5.1h-5.5l1-5.7c1-5.2,3.7-7.2,9.5-7.2h0.1c4.8,0,7.9,2,6.9,7.2l-0.7,4.1c-0.8,4.4-2.8,5.4-4.6,6.8c-1.6,1.1-3.3,2.5-3.7,4.5
			l-0.5,3.2h-4.4L468.1,150.9z M470.6,165.1h-5.7l1.2-6.5h5.7L470.6,165.1z"/>
	</g>
	<g class="st4">
		<path class="st11" d="M450.4,153.5h-16.8l0.8-4.3h16.8L450.4,153.5z M451.9,145.2H435l0.8-4.3h16.8L451.9,145.2z"/>
		<path class="st11" d="M468.1,150.9c0.5-2.5,1.5-4.4,4.1-6.5c1-0.8,2.5-2,2.7-3.6l0.6-3.4c0.5-2.4-0.6-3-2.2-3s-2.8,0.6-3.2,3
			l-0.9,5.1h-5.5l1-5.7c1-5.2,3.7-7.2,9.5-7.2h0.1c4.8,0,7.9,2,6.9,7.2l-0.7,4.1c-0.8,4.4-2.8,5.4-4.6,6.8c-1.6,1.1-3.3,2.5-3.7,4.5
			l-0.5,3.2h-4.4L468.1,150.9z M470.6,165.1h-5.7l1.2-6.5h5.7L470.6,165.1z"/>
	</g>
</g>
<line class="st3" x1="68.6" y1="156.5" x2="279.4" y2="156.5"/>
<path id="SVGID_x5F_1_x5F__1_" class="st3" d="M53,89.5l77.5-15.4"/>
<g>
	<path class="st1" d="M64.6,84.7l-4.3-7.2l-0.2,0l-2.5,0.5l1.5,7.7l-1.9,0.4l-3.6-18.3l4.4-0.9c2.8-0.6,4.5,0.4,5.1,3l0.6,2.9
		c0.4,1.9-0.2,3.3-1.6,4.1l4.6,7.4L64.6,84.7z M57.2,76.4l2.4-0.5c1.8-0.3,2.4-1.2,2-3.1l-0.4-1.9c-0.4-1.9-1.3-2.5-3-2.1l-2.4,0.5
		L57.2,76.4z"/>
	<path class="st1" d="M69,83.8l-3.6-18.3l7.4-1.5l0.3,1.7l-5.5,1.1l1.3,6.5l4.7-0.9l0.3,1.7L69.2,75l1.3,6.8l5.6-1.1l0.3,1.7
		L69,83.8z"/>
	<path class="st1" d="M86.9,76.4c0.5,2.7-0.7,4.2-3.5,4.7l-0.1,0c-2.8,0.6-4.5-0.3-5.1-3l-2.2-11c-0.5-2.6,0.7-4.2,3.5-4.7l0.1,0
		c2.8-0.6,4.6,0.5,5.1,3l0.6,3.2L83.4,69l-0.5-2.7c-0.4-1.9-1.2-2.5-3-2.2c-1.7,0.3-2.3,1.2-1.9,3.1l2,10.1c0.4,1.9,1.2,2.5,3,2.2
		c1.7-0.3,2.3-1.2,1.9-3.1l-0.6-3.2l1.9-0.4L86.9,76.4z"/>
	<path class="st1" d="M90.7,79.5l-3.6-18.3l1.9-0.4l3.6,18.3L90.7,79.5z"/>
	<path class="st1" d="M101.8,62.3l0.6,3.1c0.5,2.6-0.7,4.2-3.5,4.7l-2.5,0.5l1.5,7.5l-1.9,0.4l-3.6-18.3l4.4-0.9
		C99.5,58.7,101.3,59.6,101.8,62.3z M100,63.1c-0.4-1.9-1.3-2.5-3-2.1l-2.4,0.5l1.5,7.4l2.4-0.5c1.8-0.3,2.4-1.2,2-3.1L100,63.1z"/>
	<path class="st1" d="M107.3,76.2l-3.6-18.3l7.4-1.5l0.3,1.7l-5.5,1.1l1.3,6.5l4.7-0.9l0.3,1.7l-4.7,0.9l1.3,6.8l5.6-1.1l0.3,1.7
		L107.3,76.2z"/>
</g>
</svg>
