<?xml version="1.0" encoding="utf-8"?>
<!-- Generator: Adobe Illustrator 22.1.0, SVG Export Plug-In . SVG Version: 6.00 Build 0)  -->
<svg version="1.1" id="Layer_1" xmlns="http://www.w3.org/2000/svg" xmlns:xlink="http://www.w3.org/1999/xlink" x="0px" y="0px"
	 viewBox="0 0 500 200" style="enable-background:new 0 0 500 200;" xml:space="preserve">
<style type="text/css">
	.st0{fill:none;stroke:#000000;stroke-width:4;stroke-miterlimit:10;}
	.st1{fill:none;stroke:#A6CED4;stroke-miterlimit:10;}
	.st2{stroke:#A6CED4;stroke-miterlimit:10;}
	.st3{fill:#A6CED4;}
	.st4{fill:#A6CDD3;}
	.st5{stroke:#A6CDD3;stroke-width:4;stroke-miterlimit:10;}
</style>
<g>
	<path d="M88.7,43h-0.2l-9,4.9l-1.4-5.4l11.4-6.1h6v52h-6.8V43z"/>
</g>
<g>
	<path d="M161.4,86.5l4.5,6.8c1.2,1.8,2.1,3.4,3.2,5.1h0.2c1-1.9,2.1-3.5,3.1-5.2l4.4-6.7h6.2l-10.7,15.2l11.1,16.3h-6.5l-4.6-7.1
		c-1.2-1.8-2.3-3.6-3.4-5.5h-0.1c-1,1.9-2.1,3.6-3.3,5.5l-4.6,7.1h-6.3l11.2-16.1L155,86.5H161.4z"/>
</g>
<g>
	<path d="M242.3,166.6v-4.3l5.5-5.4c13.3-12.6,19.3-19.4,19.4-27.2c0-5.3-2.6-10.2-10.3-10.2c-4.7,0-8.6,2.4-11,4.4l-2.2-5
		c3.6-3,8.7-5.3,14.7-5.3c11.2,0,15.9,7.7,15.9,15.1c0,9.6-7,17.4-17.9,27.9l-4.2,3.8v0.2h23.4v5.8H242.3z"/>
</g>
<g>
	<path d="M243.9,80.3c2,1.3,6.6,3.3,11.5,3.3c9,0,11.8-5.8,11.8-10.1c-0.1-7.3-6.6-10.4-13.4-10.4h-3.9v-5.3h3.9
		c5.1,0,11.6-2.6,11.6-8.8c0-4.2-2.6-7.8-9.1-7.8c-4.2,0-8.2,1.8-10.4,3.4l-1.8-5.1c2.7-2,8-4,13.6-4c10.2,0,14.9,6.1,14.9,12.4
		c0,5.4-3.2,9.9-9.6,12.2v0.2c6.4,1.3,11.6,6.1,11.6,13.4c0,8.3-6.5,15.6-19,15.6c-5.8,0-11-1.8-13.5-3.5L243.9,80.3z"/>
</g>
<line class="st0" x1="216.2" y1="102.1" x2="303.1" y2="102.1"/>
<g>
	<path d="M339,102v-3.9h33.5v3.9H339z M339,114.7v-3.9h33.5v3.9H339z"/>
</g>
<line class="st0" x1="42.4" y1="102.1" x2="129.3" y2="102.1"/>
<g>
	<path d="M75.1,158.5c2,1.3,6.6,3.3,11.5,3.3c9,0,11.8-5.8,11.8-10.1c-0.1-7.3-6.6-10.4-13.4-10.4H81V136h3.9
		c5.1,0,11.6-2.6,11.6-8.8c0-4.2-2.6-7.8-9.1-7.8c-4.2,0-8.2,1.8-10.4,3.4l-1.8-5.1c2.7-2,8-4,13.6-4c10.2,0,14.9,6.1,14.9,12.4
		c0,5.4-3.2,9.9-9.6,12.2v0.2c6.4,1.3,11.6,6.1,11.6,13.4c0,8.3-6.5,15.6-19,15.6c-5.8,0-11-1.8-13.5-3.5L75.1,158.5z"/>
</g>
<line class="st1" x1="59.6" y1="177.3" x2="128.7" y2="113.9"/>
<line class="st2" x1="226" y1="95.5" x2="293" y2="29.7"/>
<g>
	<path class="st3" d="M308.8,47.1h-0.1l-6.8,3.7l-1-4l8.5-4.6h4.5v39h-5.1V47.1z"/>
</g>
<g>
	<path class="st3" d="M50.2,119.8h-0.1l-6.8,3.7l-1-4l8.5-4.6h4.5v39h-5.1V119.8z"/>
</g>
<g>
	<path class="st4" d="M436,42.7h-0.2l-9,4.9l-1.4-5.4l11.4-6.1h6v52H436V42.7z"/>
</g>
<line class="st5" x1="394.7" y1="101.9" x2="481.6" y2="101.9"/>
<g>
	<path class="st4" d="M420.7,166.6v-4.3l5.5-5.4c13.3-12.6,19.3-19.4,19.4-27.2c0-5.3-2.6-10.2-10.3-10.2c-4.7,0-8.6,2.4-11,4.4
		l-2.2-5c3.6-3,8.7-5.3,14.7-5.3c11.2,0,15.9,7.7,15.9,15.1c0,9.6-7,17.4-17.9,27.9l-4.2,3.8v0.2h23.4v5.8H420.7z"/>
</g>
<text transform="matrix(1 0 0 1 91.0967 -33.9097)" style="font-family:'MyriadPro-Regular'; font-size:12px;">Lorem ipsum</text>
</svg>
