<?xml version="1.0" encoding="utf-8"?>
<!-- Generator: Adobe Illustrator 22.1.0, SVG Export Plug-In . SVG Version: 6.00 Build 0)  -->
<svg version="1.1" id="Layer_1" xmlns="http://www.w3.org/2000/svg" xmlns:xlink="http://www.w3.org/1999/xlink" x="0px" y="0px"
	 viewBox="0 0 500 200" style="enable-background:new 0 0 500 200;" xml:space="preserve">
<style type="text/css">
	.st0{fill:none;stroke:#000000;stroke-width:4;stroke-miterlimit:10;}
	.st1{fill:#A6CDD3;}
	.st2{fill:none;stroke:#A6CDD3;stroke-width:4;stroke-miterlimit:10;}
</style>
<g>
	<path d="M78.2,85.3l4.5,6.8c1.2,1.8,2.1,3.4,3.2,5.1H86c1-1.9,2.1-3.5,3.1-5.2l4.4-6.7h6.2L89,100.5l11.1,16.2h-6.5l-4.6-7.1
		c-1.2-1.8-2.3-3.6-3.4-5.5h-0.1c-1,1.9-2.1,3.6-3.3,5.5l-4.6,7.1h-6.3l11.2-16.1L71.8,85.3H78.2z"/>
</g>
<g>
	<path d="M132.1,165.4v-4.3l5.5-5.4c13.3-12.6,19.3-19.4,19.4-27.2c0-5.3-2.6-10.2-10.3-10.2c-4.7,0-8.6,2.4-11,4.4l-2.2-5
		c3.6-3,8.7-5.3,14.7-5.3c11.2,0,15.9,7.7,15.9,15.1c0,9.6-7,17.4-17.9,27.9l-4.2,3.8v0.2h23.4v5.8H132.1z"/>
</g>
<g>
	<path d="M133.7,79.1c2,1.3,6.6,3.3,11.5,3.3c9,0,11.8-5.8,11.8-10.1c-0.1-7.3-6.6-10.4-13.4-10.4h-3.9v-5.3h3.9
		c5.1,0,11.6-2.6,11.6-8.8c0-4.2-2.6-7.8-9.1-7.8c-4.2,0-8.2,1.8-10.4,3.4l-1.8-5.1c2.7-2,8-4,13.6-4c10.2,0,14.9,6.1,14.9,12.4
		c0,5.4-3.2,9.9-9.6,12.2v0.2c6.4,1.3,11.6,6.1,11.6,13.4c0,8.3-6.5,15.6-19,15.6c-5.8,0-11-1.8-13.5-3.5L133.7,79.1z"/>
</g>
<line class="st0" x1="120.9" y1="100.9" x2="176.9" y2="100.9"/>
<g>
	<path d="M198,100.8v-3.9h33.5v3.9H198z M198,113.5v-3.9h33.5v3.9H198z"/>
</g>
<g>
	<path class="st1" d="M269.8,82c1.5,0.2,3.3,0,5.7-0.2c4.1-0.6,7.9-2.2,10.9-5c3.4-3.1,5.9-7.7,6.9-13.8H293
		c-2.9,3.5-7,5.6-12.2,5.6c-9.4,0-15.4-7-15.4-15.9c0-9.8,7.1-18.5,17.8-18.5c10.6,0,17.2,8.6,17.2,21.9c0,11.4-3.8,19.4-9,24.4
		c-4,3.9-9.5,6.3-15.1,7c-2.6,0.4-4.8,0.5-6.5,0.4V82z M272.4,52.1c0,6.5,3.9,11,10,11c4.7,0,8.4-2.3,10.2-5.4
		c0.4-0.6,0.6-1.4,0.6-2.6c0-8.9-3.3-15.7-10.6-15.7C276.6,39.4,272.4,44.7,272.4,52.1z"/>
</g>
<g>
	<path class="st1" d="M287.5,165.4v-14.2h-24.2v-4.6l23.2-33.2h7.6v32.3h7.3v5.5h-7.3v14.2H287.5z M287.5,145.7v-17.4
		c0-2.7,0.1-5.4,0.2-8.2h-0.2c-1.6,3-2.9,5.3-4.3,7.7l-12.7,17.7v0.2H287.5z"/>
</g>
<g>
	<path class="st1" d="M333,98.9v-3.2h27.3v3.2H333z M333,109.2v-3.2h27.3v3.2H333z"/>
</g>
<g>
	<path class="st1" d="M451,42.5h-0.2l-9,4.9l-1.4-5.4l11.4-6.1h6v52H451V42.5z"/>
</g>
<g>
	<path class="st1" d="M457.5,166.3v-14.2h-24.2v-4.6l23.2-33.2h7.6v32.3h7.3v5.5h-7.3v14.2H457.5z M457.5,146.7v-17.4
		c0-2.7,0.1-5.4,0.2-8.2h-0.2c-1.6,3-2.9,5.3-4.3,7.7l-12.7,17.7v0.2H457.5z"/>
</g>
<g>
	<path class="st1" d="M378.7,128.1v-4.3l5.5-5.4c13.3-12.6,19.3-19.4,19.4-27.2c0-5.3-2.6-10.2-10.3-10.2c-4.7,0-8.6,2.4-11,4.4
		l-2.2-5c3.6-3,8.7-5.3,14.7-5.3c11.2,0,15.9,7.7,15.9,15.1c0,9.6-7,17.4-17.9,27.9l-4.2,3.8v0.2h23.4v5.8H378.7z"/>
</g>
<line class="st2" x1="254.8" y1="100.9" x2="310.8" y2="100.9"/>
<line class="st2" x1="426.4" y1="97.8" x2="482.4" y2="97.8"/>
<g>
	<path d="M14.2,167.2v-4.3l5.5-5.4C33,144.9,39,138.2,39,130.3c0-5.3-2.6-10.2-10.3-10.2c-4.7,0-8.6,2.4-11,4.4l-2.2-5
		c3.6-3,8.7-5.3,14.7-5.3c11.2,0,15.9,7.7,15.9,15.1c0,9.6-7,17.4-17.9,27.9l-4.2,3.8v0.2h23.4v5.8H14.2z"/>
</g>
<g>
	<path d="M15.8,81c2,1.3,6.6,3.3,11.5,3.3c9,0,11.8-5.8,11.8-10.1c-0.1-7.3-6.6-10.4-13.4-10.4h-3.9v-5.3h3.9
		c5.1,0,11.6-2.6,11.6-8.8c0-4.2-2.6-7.8-9.1-7.8c-4.2,0-8.2,1.8-10.4,3.4l-1.8-5.1c2.7-2,8-4,13.6-4c10.2,0,14.9,6.1,14.9,12.4
		c0,5.4-3.2,9.9-9.6,12.2V61c6.4,1.3,11.6,6.1,11.6,13.4c0,8.3-6.5,15.6-19,15.6c-5.8,0-11-1.8-13.5-3.5L15.8,81z"/>
</g>
<line class="st0" x1="3" y1="102.8" x2="59" y2="102.8"/>
</svg>
