<?xml version="1.0" encoding="utf-8"?>
<!-- Generator: Adobe Illustrator 22.1.0, SVG Export Plug-In . SVG Version: 6.00 Build 0)  -->
<svg version="1.1" id="Layer_1" xmlns="http://www.w3.org/2000/svg" xmlns:xlink="http://www.w3.org/1999/xlink" x="0px" y="0px"
	 viewBox="0 0 500 200" style="enable-background:new 0 0 500 200;" xml:space="preserve">
<style type="text/css">
	.st0{fill:none;stroke:#000000;stroke-width:4;stroke-miterlimit:10;}
	.st1{fill:#A6CDD3;}
	.st2{fill:none;stroke:#A6CDD3;stroke-width:4;stroke-miterlimit:10;}
</style>
<g>
	<path d="M85.4,86.5l4.5,6.8c1.2,1.8,2.1,3.4,3.2,5.1h0.2c1-1.9,2.1-3.5,3.1-5.2l4.4-6.7h6.2l-10.7,15.2l11.1,16.3h-6.5l-4.6-7.1
		c-1.2-1.8-2.3-3.6-3.4-5.5h-0.1c-1,1.9-2.1,3.6-3.3,5.5l-4.6,7.1h-6.3l11.2-16.1L79,86.5H85.4z"/>
</g>
<g>
	<path d="M136.3,166.6v-4.3l5.5-5.4c13.3-12.6,19.3-19.4,19.4-27.2c0-5.3-2.6-10.2-10.3-10.2c-4.7,0-8.6,2.4-11,4.4l-2.2-5
		c3.6-3,8.7-5.3,14.7-5.3c11.2,0,15.9,7.7,15.9,15.1c0,9.6-7,17.4-17.9,27.9l-4.2,3.8v0.2h23.4v5.8h-33.3L136.3,166.6L136.3,166.6z"
		/>
</g>
<g>
	<path d="M137.9,80.3c2,1.3,6.6,3.3,11.5,3.3c9,0,11.8-5.8,11.8-10.1c-0.1-7.3-6.6-10.4-13.4-10.4h-3.9v-5.3h3.9
		c5.1,0,11.6-2.6,11.6-8.8c0-4.2-2.6-7.8-9.1-7.8c-4.2,0-8.2,1.8-10.4,3.4l-1.8-5.1c2.7-2,8-4,13.6-4c10.2,0,14.9,6.1,14.9,12.4
		c0,5.4-3.2,9.9-9.6,12.2v0.2c6.4,1.3,11.6,6.1,11.6,13.4c0,8.3-6.5,15.6-19,15.6c-5.8,0-11-1.8-13.5-3.5L137.9,80.3z"/>
</g>
<line class="st0" x1="125.1" y1="102.1" x2="181.1" y2="102.1"/>
<g>
	<path d="M201.2,102v-3.9h33.5v3.9H201.2z M201.2,114.7v-3.9h33.5v3.9H201.2z"/>
</g>
<g>
	<path class="st1" d="M276,83.2c1.5,0.2,3.3,0,5.7-0.2c4.1-0.6,7.9-2.2,10.9-5c3.4-3.1,5.9-7.7,6.9-13.8h-0.2
		c-2.9,3.5-7,5.6-12.2,5.6c-9.4,0-15.4-7-15.4-15.9c0-9.8,7.1-18.5,17.8-18.5c10.6,0,17.2,8.6,17.2,21.9c0,11.4-3.8,19.4-9,24.4
		c-4,3.9-9.5,6.3-15.1,7c-2.6,0.4-4.8,0.5-6.5,0.4L276,83.2L276,83.2z M278.6,53.3c0,6.5,3.9,11,10,11c4.7,0,8.4-2.3,10.2-5.4
		c0.4-0.6,0.6-1.4,0.6-2.6c0-8.9-3.3-15.7-10.6-15.7C282.8,40.6,278.6,45.9,278.6,53.3z"/>
</g>
<g>
	<path class="st1" d="M271.3,153.4c0-6.6,3.9-11.2,10.3-13.9l-0.1-0.2c-5.8-2.7-8.2-7.2-8.2-11.7c0-8.2,7-13.8,16.1-13.8
		c10.1,0,15.1,6.3,15.1,12.8c0,4.4-2.2,9.1-8.6,12.2v0.2c6.5,2.6,10.5,7.1,10.5,13.4c0,9-7.8,15.1-17.7,15.1
		C277.8,167.5,271.3,161,271.3,153.4z M299.3,153.1c0-6.3-4.4-9.4-11.4-11.4c-6.1,1.8-9.4,5.8-9.4,10.7c-0.2,5.3,3.8,9.9,10.4,9.9
		C295.2,162.3,299.3,158.4,299.3,153.1z M279.9,127.1c0,5.2,3.9,8,9.9,9.6c4.5-1.5,7.9-4.7,7.9-9.4c0-4.2-2.5-8.5-8.8-8.5
		C283.1,118.7,279.9,122.6,279.9,127.1z"/>
</g>
<g>
	<path class="st1" d="M338.2,100.1v-3.2h27.3v3.2H338.2z M338.2,110.4v-3.2h27.3v3.2H338.2z"/>
</g>
<g>
	<path class="st1" d="M446.2,44.7H446l-9,4.9l-1.4-5.4l11.4-6.1h6v52h-6.8V44.7z"/>
</g>
<g>
	<path class="st1" d="M430.3,155.4c0-6.6,3.9-11.2,10.3-13.9l-0.1-0.2c-5.8-2.7-8.2-7.2-8.2-11.7c0-8.2,7-13.8,16.1-13.8
		c10.1,0,15.1,6.3,15.1,12.8c0,4.4-2.2,9.1-8.6,12.2v0.2c6.5,2.6,10.5,7.1,10.5,13.4c0,9-7.8,15.1-17.7,15.1
		C436.9,169.4,430.3,163,430.3,155.4z M458.3,155c0-6.3-4.4-9.4-11.4-11.4c-6.1,1.8-9.4,5.8-9.4,10.7c-0.2,5.3,3.8,9.9,10.4,9.9
		C454.2,164.3,458.3,160.4,458.3,155z M438.9,129c0,5.2,3.9,8,9.9,9.6c4.5-1.5,7.9-4.7,7.9-9.4c0-4.2-2.5-8.5-8.8-8.5
		C442.1,120.7,438.9,124.6,438.9,129z"/>
</g>
<g>
	<path class="st1" d="M396.1,83.9H396l-9,4.9l-1.4-5.4l11.4-6.1h6v52h-6.8V83.9H396.1z"/>
</g>
<line class="st2" x1="261" y1="102.1" x2="317" y2="102.1"/>
<line class="st2" x1="421.6" y1="100" x2="477.6" y2="100"/>
<g>
	<path d="M37.9,168.4v-14.2H13.8v-4.6L37,116.4h7.6v32.3h7.3v5.5h-7.3v14.2H37.9z M37.9,148.7v-17.4c0-2.7,0.1-5.4,0.2-8.2h-0.2
		c-1.6,3-2.9,5.3-4.3,7.7l-12.7,17.7v0.2H37.9z"/>
</g>
<g>
	<path d="M17.8,82.2c2,1.3,6.6,3.3,11.5,3.3c9,0,11.8-5.8,11.8-10.1C41,68.1,34.5,65,27.7,65h-3.9v-5.3h3.9c5.1,0,11.6-2.6,11.6-8.8
		c0-4.2-2.6-7.8-9.1-7.8c-4.2,0-8.2,1.8-10.4,3.4L18,41.4c2.7-2,8-4,13.6-4c10.2,0,14.9,6.1,14.9,12.4c0,5.4-3.2,9.9-9.6,12.2v0.2
		c6.4,1.3,11.6,6.1,11.6,13.4c0,8.3-6.5,15.6-19,15.6c-5.8,0-11-1.8-13.5-3.5L17.8,82.2z"/>
</g>
<line class="st0" x1="5" y1="104" x2="61" y2="104"/>
</svg>
