<?xml version="1.0" encoding="utf-8"?>
<!-- Generator: Adobe Illustrator 22.1.0, SVG Export Plug-In . SVG Version: 6.00 Build 0)  -->
<svg version="1.1" id="Layer_1" xmlns="http://www.w3.org/2000/svg" xmlns:xlink="http://www.w3.org/1999/xlink" x="0px" y="0px"
	 viewBox="0 0 500 200" style="enable-background:new 0 0 500 200;" xml:space="preserve">
<style type="text/css">
	.st0{fill:#C3C3C3;stroke:#A6CDD3;stroke-width:4;stroke-miterlimit:10;}
	.st1{fill:none;stroke:#000000;stroke-width:4;stroke-miterlimit:10;}
	.st2{fill:#A6CDD3;}
</style>
<g>
	<path d="M57.8,43h-0.2l-9,4.9l-1.4-5.4l11.4-6.1h6v52h-6.8V43z"/>
</g>
<line class="st0" x1="297.8" y1="102.1" x2="384.7" y2="102.1"/>
<g>
	<path d="M98.4,98v-3.9h33.5V98H98.4z M98.4,110.8v-3.9h33.5v3.9H98.4z"/>
</g>
<line class="st1" x1="29.8" y1="102.1" x2="89.3" y2="102.1"/>
<g>
	<path d="M42.5,160.3V156l5.5-5.4c13.3-12.6,19.3-19.4,19.4-27.2c0-5.3-2.6-10.2-10.3-10.2c-4.7,0-8.6,2.4-11,4.4l-2.2-5
		c3.6-3,8.7-5.3,14.7-5.3c11.2,0,15.9,7.7,15.9,15.1c0,9.6-7,17.4-17.9,27.9l-4.2,3.8v0.2h23.4v5.8H42.5z"/>
</g>
<g>
	<path d="M14.1,78.4h-0.2l-9,4.9L3.5,78l11.4-6.1h6v52h-6.8V78.4z"/>
</g>
<line class="st1" x1="143.9" y1="101" x2="240" y2="101"/>
<g>
	<path d="M144.5,89.4v-4.3l5.5-5.4c13.3-12.6,19.3-19.4,19.4-27.2c0-5.3-2.6-10.2-10.3-10.2c-4.7,0-8.6,2.4-11,4.4l-2.2-5
		c3.6-3,8.7-5.3,14.7-5.3c11.2,0,15.9,7.7,15.9,15.1c0,9.6-7,17.4-17.9,27.9l-4.2,3.8v0.2h23.4v5.8H144.5z"/>
</g>
<g>
	<path d="M179,164.5v-4.3l5.5-5.4c13.3-12.6,19.3-19.4,19.4-27.2c0-5.3-2.6-10.2-10.3-10.2c-4.7,0-8.6,2.4-11,4.4l-2.2-5
		c3.6-3,8.7-5.3,14.7-5.3c11.2,0,15.9,7.7,15.9,15.1c0,9.6-7,17.4-17.9,27.9l-4.2,3.8v0.2h23.4v5.8H179z"/>
</g>
<g>
	<path d="M226.8,44h-0.2l-9,4.9l-1.4-5.4l11.4-6.1h6v52h-6.8V44z"/>
</g>
<g>
	<path d="M199.9,54.9v11.8h11.3v3h-11.3v11.9h-3.2V69.7h-11.3v-3h11.3V54.9H199.9z"/>
</g>
<g>
	<path d="M252.7,95.1v-3.8h34.5v3.8H252.7z M252.7,107.5v-3.8h34.5v3.8H252.7z"/>
</g>
<g>
	<path class="st2" d="M327.5,163.5v-4.3l5.5-5.4c13.3-12.6,19.3-19.4,19.4-27.2c0-5.3-2.6-10.2-10.3-10.2c-4.7,0-8.6,2.4-11,4.4
		l-2.2-5c3.6-3,8.7-5.3,14.7-5.3c11.2,0,15.9,7.7,15.9,15.1c0,9.6-7,17.4-17.9,27.9l-4.2,3.8v0.2h23.4v5.8H327.5z"/>
</g>
<g>
	<path class="st2" d="M329.2,80.3c2,1.3,6.6,3.3,11.5,3.3c9,0,11.8-5.8,11.8-10.1c-0.1-7.3-6.6-10.4-13.4-10.4h-3.9v-5.3h3.9
		c5.1,0,11.6-2.6,11.6-8.8c0-4.2-2.6-7.8-9.1-7.8c-4.2,0-8.2,1.8-10.4,3.4l-1.8-5.1c2.7-2,8-4,13.6-4c10.2,0,14.9,6.1,14.9,12.4
		c0,5.4-3.2,9.9-9.6,12.2v0.2c6.4,1.3,11.6,6.1,11.6,13.4c0,8.3-6.5,15.6-19,15.6c-5.8,0-11-1.8-13.5-3.5L329.2,80.3z"/>
</g>
<g>
	<path d="M400.2,89.9h-0.8l-3.1-8.6v11h-1.4V77.6h1.4l3.4,9.7l3.5-9.7h1.5v14.7h-1.5v-11L400.2,89.9z"/>
	<path d="M414.2,89.4c0,2.1-1.2,3.1-3.4,3.1h-0.1c-2.2,0-3.4-0.9-3.4-3.1V77.6h1.5V89c0,1.5,0.5,2.1,1.9,2.1s1.9-0.6,1.9-2.1V77.6
		h1.5V89.4z"/>
	<path d="M422.5,92.3h-5.7V77.6h1.5v13.3h4.2V92.3z"/>
	<path d="M428.8,79h-2.7v13.3h-1.5V79H422v-1.4h6.9V79z"/>
	<path d="M430.5,92.3V77.6h1.5v14.7H430.5z"/>
	<path d="M441.7,80.7v2.5c0,2.1-1.2,3.1-3.4,3.1h-2v6h-1.5V77.6h3.5C440.5,77.6,441.7,78.6,441.7,80.7z M440.2,81.1
		c0-1.5-0.6-2.1-2-2.1h-2v5.9h2c1.4,0,2-0.6,2-2.1V81.1z"/>
	<path d="M449.4,92.3h-5.7V77.6h1.5v13.3h4.2V92.3z"/>
	<path d="M453.5,92.3h-1.5v-5.6l-3.2-9.1h1.6l2.4,7.4l2.4-7.4h1.6l-3.2,9.1V92.3z"/>
	<path d="M461.5,92.3V77.6h5.9V79H463v5.2h3.8v1.3H463v5.4h4.5v1.4H461.5z"/>
	<path d="M474.5,88.7h-3.6l-0.7,3.6h-1.5l3.1-14.7h1.8l3.1,14.7h-1.6L474.5,88.7z M474.2,87.4l-1.5-7.6l-1.5,7.6H474.2z"/>
	<path d="M485.2,89.4c0,2.1-1.2,3.1-3.4,3.1h0c-2.2,0-3.4-0.9-3.4-3.1v-8.8c0-2.1,1.2-3.1,3.4-3.1h0c2.2,0,3.4,1,3.4,3.1v2.6h-1.5
		v-2.2c0-1.5-0.6-2.1-2-2.1c-1.4,0-2,0.6-2,2.1V89c0,1.5,0.6,2.1,2,2.1c1.4,0,2-0.6,2-2.1v-2.5h1.5V89.4z"/>
	<path d="M489.1,77.6v6.5h4.1v-6.5h1.5v14.7h-1.5v-6.8h-4.1v6.8h-1.5V77.6H489.1z"/>
	<path d="M400.2,115.1h-0.8l-3.1-8.6v11h-1.4v-14.7h1.4l3.4,9.7l3.5-9.7h1.5v14.7h-1.5v-11L400.2,115.1z"/>
	<path d="M407.4,117.5v-14.7h5.9v1.4h-4.4v5.2h3.8v1.3h-3.8v5.4h4.5v1.4H407.4z"/>
	<path d="M420.4,113.9h-3.6l-0.7,3.6h-1.5l3.1-14.7h1.8l3.1,14.7h-1.6L420.4,113.9z M420.2,112.6l-1.5-7.6l-1.5,7.6H420.2z"/>
	<path d="M429.3,107.9V106c0-1.4-0.6-2-1.9-2c-1.3,0-1.9,0.6-1.9,2v1c0,1,0.3,1.3,1.3,1.8l2.1,1.2c1.1,0.6,1.9,1.4,1.9,2.6v2
		c0,2.1-1.2,3.1-3.4,3.1h0c-2.2,0-3.4-0.9-3.4-3.1v-2.4h1.5v2.1c0,1.4,0.6,2.1,1.9,2.1s1.9-0.7,1.9-2.1v-1.2c0-1-0.4-1.4-1.4-1.9
		l-2.1-1.1c-1.3-0.7-1.9-1.3-1.9-2.6v-1.8c0-2.1,1.3-3,3.4-3h0c2,0,3.4,1,3.4,3v2.3H429.3z"/>
	<path d="M439.9,114.6c0,2.1-1.2,3.1-3.4,3.1h-0.1c-2.2,0-3.4-0.9-3.4-3.1v-11.8h1.5v11.4c0,1.5,0.5,2.1,1.9,2.1s1.9-0.6,1.9-2.1
		v-11.4h1.5V114.6z"/>
	<path d="M448.4,117.5l-2.2-6.2H446h-2v6.2h-1.5v-14.7h3.5c2.2,0,3.4,1,3.4,3.1v2.3c0,1.5-0.7,2.5-1.9,2.9l2.4,6.4H448.4z M444,110
		h2c1.4,0,2-0.6,2-2.1v-1.6c0-1.5-0.6-2.1-2-2.1h-2V110z"/>
	<path d="M451.9,117.5v-14.7h5.9v1.4h-4.4v5.2h3.8v1.3h-3.8v5.4h4.5v1.4H451.9z"/>
	<path d="M465.4,115.1h-0.8l-3.1-8.6v11h-1.4v-14.7h1.4l3.4,9.7l3.5-9.7h1.5v14.7h-1.5v-11L465.4,115.1z"/>
	<path d="M472.5,117.5v-14.7h5.9v1.4h-4.4v5.2h3.8v1.3h-3.8v5.4h4.5v1.4H472.5z"/>
	<path d="M480.7,117.5v-14.7h1.5l4.3,11.1v-11.1h1.4v14.7h-1.4l-4.4-11.4v11.4H480.7z"/>
	<path d="M496.4,104.2h-2.7v13.3h-1.5v-13.3h-2.7v-1.4h6.9V104.2z"/>
	<path d="M400.1,135.1c1.4,0.2,1.7,1.3,1.7,2.3v2.4c0,1.7-1.2,2.9-3.4,2.9h-3.5V128h3.6c2.2,0,3.3,1.2,3.3,2.9v1.8
		C401.8,133.7,401.4,134.9,400.1,135.1z M396.4,134.4h2c1.2,0,1.8-0.5,1.8-1.5v-1.7c0-1.3-0.5-1.9-1.8-1.9h-2V134.4z M398.5,135.8
		h-2.1v5.6h2.1c1.3,0,1.8-0.6,1.8-1.9v-2.2C400.3,136.2,399.7,135.8,398.5,135.8z"/>
	<path d="M407.8,142.7h-1.5v-5.6l-3.2-9.1h1.6l2.4,7.4l2.4-7.4h1.6l-3.2,9.1V142.7z"/>
	<path d="M421.2,135.1c1,0.2,1.2,1.3,1.1,2.1l-0.4,2.6c-0.4,2.1-1.4,3.1-3.8,3.1h-0.6c-1.9,0-3.1-1-2.7-3.1l0.3-2h2.4l-0.3,1.7
		c-0.2,1,0.3,1.3,0.9,1.3h0.1c0.6,0,1.1-0.3,1.3-1.3l0.4-2.3c0.1-0.8-0.2-1.1-0.8-1.1h-1.8l0.3-2h1.6c0.8,0,1.3-0.4,1.4-1.3l0.3-1.6
		c0.2-1-0.3-1.3-0.9-1.3h-0.2c-0.6,0-1.2,0.3-1.3,1.3l-0.3,1.4H416l0.3-1.6c0.4-2.3,1.6-3.1,4-3.1h0.1c1.9,0,3.3,0.8,2.9,3.1
		l-0.3,1.8C422.8,133.9,422.4,134.9,421.2,135.1z"/>
	<path d="M423.9,143.7h-2.2l7.4-16.7h2.2L423.9,143.7z"/>
	<path d="M431.4,130.9c0.4-2.2,1.6-3,4-3h0c2,0,3.3,0.8,2.9,3l-0.3,1.7c-0.3,1.8-1.4,2.5-3.3,4.1c-1.4,1.2-2.4,1.9-2.5,2.7l-0.2,1.3
		h4.6l-0.4,2h-7l0.6-3.4c0.3-1.9,1.8-2.9,3.8-4.5c1.3-1.1,1.9-1.5,2-2.2l0.3-1.4c0.2-1-0.3-1.3-0.9-1.3s-1.2,0.3-1.3,1.3l-0.4,2.1
		H431L431.4,130.9z"/>
</g>
</svg>
