<?xml version="1.0" encoding="utf-8"?>
<!-- Generator: Adobe Illustrator 22.1.0, SVG Export Plug-In . SVG Version: 6.00 Build 0)  -->
<svg version="1.1" id="Layer_1" xmlns="http://www.w3.org/2000/svg" xmlns:xlink="http://www.w3.org/1999/xlink" x="0px" y="0px"
	 viewBox="0 0 360 220" style="enable-background:new 0 0 360 220;" xml:space="preserve">
<style type="text/css">
	.st0{fill:#D3CAB6;}
	.st1{fill:#FFFFFF;}
	.st2{fill:none;stroke:#000000;stroke-miterlimit:10;}
	.st3{fill:none;}
</style>
<g>
	
		<image style="overflow:visible;opacity:0.1;enable-background:new    ;" width="1558" height="992" xlink:href="60D67C9C57C6CD08.png"  transform="matrix(0.2381 0 0 0.2381 -5.5559 -2.0482)">
	</image>
	<g>
		<rect x="2.4" y="1" class="st0" width="355.2" height="218.1"/>
	</g>
</g>
<rect x="4.8" y="24.8" class="st1" width="27.4" height="26.2"/>
<line class="st2" x1="32.2" y1="65.1" x2="88.3" y2="47.7"/>
<line class="st2" x1="32.2" y1="47.7" x2="32.2" y2="65.5"/>
<line class="st2" x1="144.3" y1="65.1" x2="88.3" y2="47.7"/>
<line class="st2" x1="32.2" y1="1.9" x2="32.2" y2="47.7"/>
<rect x="144.6" y="24.8" class="st1" width="215.4" height="26.2"/>
<path id="SVGID_x5F_1_x5F_" class="st3" d="M46.3,46.4l98.2-19.5"/>
<rect x="18.5" y="74.7" class="st1" width="321.5" height="130.7"/>
<line class="st2" x1="144.3" y1="1.9" x2="144.3" y2="65.5"/>
<g>
	<path d="M24.8,80.5L24.1,81l-0.9-1.6l-1,1.6l-0.7-0.6l1.2-1.3l-1.8-0.4l0.3-0.8l1.7,0.7l-0.2-1.8h0.9l-0.2,1.8l1.7-0.7l0.3,0.8
		l-1.8,0.4L24.8,80.5z"/>
	<path d="M29.1,79c0-1.6,0.8-2.3,2.4-2.3l0,0c1.6,0,2.4,0.7,2.4,2.3v1.6c0,1.2-1,1.8-2.1,2.8c-1.1,0.9-1.7,1.5-1.7,2.4v1.3H34v1
		h-4.9v-2.3c0-1.4,1-2.3,2.2-3.2c1-0.8,1.6-1.2,1.6-2v-1.3c0-1-0.5-1.5-1.4-1.5s-1.3,0.5-1.3,1.5v1.4h-1.1
		C29.1,80.7,29.1,79,29.1,79z"/>
	<path d="M43.4,85.8c0,1.6-0.9,2.4-2.6,2.4l0,0c-1.7,0-2.6-0.7-2.6-2.4v-6.7c0-1.6,0.9-2.4,2.6-2.4l0,0c1.7,0,2.6,0.8,2.6,2.4v2
		h-1.2v-1.7c0-1.2-0.4-1.6-1.5-1.6s-1.5,0.5-1.5,1.6v6.1c0,1.2,0.4,1.6,1.5,1.6s1.5-0.5,1.5-1.6v-1.9h1.2V85.8z"/>
	<path d="M50.5,85.8c0,1.6-0.9,2.4-2.6,2.4h-0.1c-1.7,0-2.6-0.7-2.6-2.4v-9h1.2v8.7c0,1.2,0.4,1.6,1.5,1.6s1.5-0.4,1.5-1.6v-8.7h1.2
		v9H50.5z"/>
	<path d="M57.8,79.2v1.9c0,1.6-0.9,2.4-2.6,2.4h-1.6v4.6h-1.2V76.9h2.7C56.9,76.9,57.8,77.6,57.8,79.2z M56.6,79.5
		c0-1.2-0.5-1.6-1.5-1.6h-1.5v4.5h1.5c1.1,0,1.5-0.4,1.5-1.6V79.5z"/>
	<path d="M63.1,80.8v-1.5c0-1.1-0.4-1.5-1.4-1.5s-1.4,0.5-1.4,1.5v0.8c0,0.8,0.3,1,1,1.4l1.6,0.9c0.9,0.5,1.4,1.1,1.4,2v1.5
		c0,1.6-0.9,2.3-2.6,2.3l0,0c-1.7,0-2.6-0.7-2.6-2.3V84h1.1v1.6c0,1.1,0.4,1.6,1.5,1.6s1.5-0.5,1.5-1.6v-0.9c0-0.8-0.3-1-1.1-1.5
		l-1.6-0.9c-1-0.5-1.4-1-1.4-2V79c0-1.6,1-2.3,2.6-2.3l0,0c1.5,0,2.6,0.7,2.6,2.3v1.7h-1.2V80.8z"/>
	<path d="M72.2,85.3h-2.7l-0.6,2.8h-1.1l2.4-11.2h1.4L74,88.1h-1.2L72.2,85.3z M72,84.3l-1.2-5.8l-1.2,5.8H72z"/>
	<path d="M79.6,88.1h-4.3V76.9h1.2V87h3.2L79.6,88.1L79.6,88.1z"/>
	<path d="M85.2,88.1h-4.3V76.9H82V87h3.2V88.1z"/>
	<path d="M88.7,82.8h-3.6v-1h3.6V82.8z"/>
	<path d="M95.4,79.2v1.9c0,1.6-0.9,2.4-2.6,2.4h-1.6v4.6H90V76.9h2.7C94.5,76.9,95.4,77.6,95.4,79.2z M94.3,79.5
		c0-1.2-0.5-1.6-1.5-1.6h-1.5v4.5h1.5c1.1,0,1.5-0.4,1.5-1.6V79.5z"/>
	<path d="M102.2,85.8c0,1.6-0.9,2.4-2.6,2.4h-0.1c-1.7,0-2.6-0.7-2.6-2.4v-9h1.2v8.7c0,1.2,0.4,1.6,1.5,1.6s1.5-0.4,1.5-1.6v-8.7
		h1.2L102.2,85.8L102.2,85.8z"/>
	<path d="M108.7,88.1l-1.7-4.7h-0.1h-1.6v4.7h-1.2V76.9h2.7c1.7,0,2.6,0.8,2.6,2.4V81c0,1.2-0.5,1.9-1.4,2.2l1.8,4.9H108.7z
		 M105.3,82.3h1.5c1.1,0,1.5-0.4,1.5-1.6v-1.2c0-1.2-0.5-1.6-1.5-1.6h-1.5V82.3z"/>
	<path d="M116.7,79.2v1.9c0,1.6-0.9,2.4-2.6,2.4h-1.6v4.6h-1.2V76.9h2.7C115.8,76.9,116.7,77.6,116.7,79.2z M115.5,79.5
		c0-1.2-0.5-1.6-1.5-1.6h-1.5v4.5h1.5c1.1,0,1.5-0.4,1.5-1.6V79.5z"/>
	<path d="M120.8,76.7L120.8,76.7c1.8,0,2.7,0.8,2.7,2.4v6.7c0,1.6-0.9,2.4-2.6,2.4h-0.1c-1.7,0-2.6-0.8-2.6-2.4v-6.7
		C118.2,77.5,119.1,76.7,120.8,76.7z M120.9,87.1c1.1,0,1.5-0.4,1.5-1.6v-6.1c0-1.2-0.5-1.6-1.5-1.6c-1.1,0-1.5,0.4-1.5,1.6v6.1
		C119.3,86.7,119.8,87.1,120.9,87.1z"/>
	<path d="M129.3,80.8v-1.5c0-1.1-0.4-1.5-1.4-1.5c-1,0-1.4,0.5-1.4,1.5v0.8c0,0.8,0.3,1,1,1.4l1.6,0.9c0.9,0.5,1.4,1.1,1.4,2v1.5
		c0,1.6-0.9,2.3-2.6,2.3l0,0c-1.7,0-2.6-0.7-2.6-2.3V84h1.1v1.6c0,1.1,0.4,1.6,1.5,1.6s1.5-0.5,1.5-1.6v-0.9c0-0.8-0.3-1-1.1-1.5
		l-1.6-0.9c-1-0.5-1.4-1-1.4-2V79c0-1.6,1-2.3,2.6-2.3l0,0c1.5,0,2.6,0.7,2.6,2.3v1.7h-1.2V80.8z"/>
	<path d="M132.2,88.1V76.9h4.5v1h-3.4v4h2.9v1h-2.9V87h3.4v1L132.2,88.1L132.2,88.1z"/>
	<path d="M140.9,76.9h4.5v1h-3.3v4h2.8v1h-2.8V88h-1.2V76.9z"/>
	<path d="M151.1,88.1h-4.3V76.9h1.2V87h3.2L151.1,88.1L151.1,88.1z"/>
	<path d="M154.9,76.7h0.1c1.7,0,2.6,0.8,2.6,2.4v6.7c0,1.6-0.9,2.4-2.6,2.4h-0.1c-1.7,0-2.6-0.8-2.6-2.4v-6.7
		C152.3,77.5,153.2,76.7,154.9,76.7z M155,87.1c1.1,0,1.5-0.4,1.5-1.6v-6.1c0-1.2-0.5-1.6-1.5-1.6c-1.1,0-1.5,0.4-1.5,1.6v6.1
		C153.4,86.7,153.9,87.1,155,87.1z"/>
	<path d="M164.8,85.8c0,1.6-0.9,2.4-2.6,2.4h-0.1c-1.7,0-2.6-0.7-2.6-2.4v-9h1.2v8.7c0,1.2,0.4,1.6,1.5,1.6s1.5-0.4,1.5-1.6v-8.7
		h1.2L164.8,85.8L164.8,85.8z"/>
	<path d="M171.2,88.1l-1.7-4.7h-0.1h-1.6v4.7h-1.2V76.9h2.7c1.7,0,2.6,0.8,2.6,2.4V81c0,1.2-0.5,1.9-1.4,2.2l1.8,4.9H171.2z
		 M167.9,82.3h1.5c1.1,0,1.5-0.4,1.5-1.6v-1.2c0-1.2-0.5-1.6-1.5-1.6h-1.5V82.3z"/>
	<path d="M24.8,106.5l-0.7,0.6l-0.9-1.6l-0.9,1.6l-0.7-0.6l1.2-1.3l-1.8-0.4l0.3-0.8l1.7,0.7l-0.2-1.8h0.9l-0.2,1.8l1.7-0.7l0.3,0.8
		l-1.8,0.4L24.8,106.5z"/>
	<path d="M29.5,114.1v-10.2c0.2-0.3,0.4-0.6,0.5-1h0.6v11.2H29.5z"/>
	<path d="M39.9,103.9h-2v10.2h-1.2v-10.2h-2v-1h5.2V103.9z"/>
	<path d="M41.1,114.1v-11.2h4.5v1h-3.4v4h2.9v1h-2.9v4.1h3.4v1L41.1,114.1L41.1,114.1z"/>
	<path d="M51,111.3h-2.7l-0.6,2.8h-1.1l2.4-11.2h1.4l2.4,11.2h-1.2L51,111.3z M50.8,110.3l-1.2-5.8l-1.2,5.8H50.8z"/>
	<path d="M57.7,106.8v-1.5c0-1.1-0.4-1.5-1.4-1.5s-1.4,0.5-1.4,1.5v0.8c0,0.8,0.3,1,1,1.4l1.6,0.9c0.9,0.5,1.4,1.1,1.4,2v1.5
		c0,1.6-0.9,2.3-2.6,2.3l0,0c-1.7,0-2.6-0.7-2.6-2.3V110h1.1v1.6c0,1.1,0.4,1.6,1.5,1.6s1.5-0.5,1.5-1.6v-0.9c0-0.8-0.3-1-1.1-1.5
		l-1.6-0.9c-1-0.5-1.4-1-1.4-2V105c0-1.6,1-2.3,2.6-2.3l0,0c1.5,0,2.6,0.7,2.6,2.3v1.7h-1.2V106.8z"/>
	<path d="M65.9,105.2v1.9c0,1.6-0.9,2.4-2.6,2.4h-1.6v4.6h-1.2v-11.2h2.7C65,102.9,65.9,103.6,65.9,105.2z M64.7,105.5
		c0-1.2-0.5-1.6-1.5-1.6h-1.5v4.5h1.5c1.1,0,1.5-0.4,1.5-1.6V105.5z"/>
	<path d="M70,102.7L70,102.7c1.8,0,2.7,0.8,2.7,2.4v6.7c0,1.6-0.9,2.4-2.6,2.4H70c-1.7,0-2.6-0.8-2.6-2.4v-6.7
		C67.4,103.5,68.3,102.7,70,102.7z M70.1,113.1c1.1,0,1.5-0.4,1.5-1.6v-6.1c0-1.2-0.5-1.6-1.5-1.6c-1.1,0-1.5,0.4-1.5,1.6v6.1
		C68.5,112.7,69,113.1,70.1,113.1z"/>
	<path d="M77.2,102.7L77.2,102.7c1.8,0,2.7,0.8,2.7,2.4v6.7c0,1.6-0.9,2.4-2.6,2.4h-0.1c-1.7,0-2.6-0.8-2.6-2.4v-6.7
		C74.6,103.5,75.5,102.7,77.2,102.7z M77.3,113.1c1.1,0,1.5-0.4,1.5-1.6v-6.1c0-1.2-0.5-1.6-1.5-1.6c-1.1,0-1.5,0.4-1.5,1.6v6.1
		C75.8,112.7,76.2,113.1,77.3,113.1z"/>
	<path d="M81.9,114.1v-11.2h1.2l3.3,8.5v-8.5h1.1v11.2h-1.1l-3.3-8.7v8.7H81.9z"/>
	<path d="M96,108.2c1,0.2,1.3,1,1.3,1.8v1.8c0,1.3-0.9,2.2-2.6,2.2H92v-11.2h2.7c1.7,0,2.5,0.9,2.5,2.2v1.4
		C97.2,107.2,96.9,108.1,96,108.2z M93.1,107.8h1.6c0.9,0,1.4-0.4,1.4-1.1v-1.3c0-1-0.4-1.4-1.4-1.4h-1.6V107.8z M94.7,108.8h-1.6
		v4.3h1.6c1,0,1.4-0.5,1.4-1.4V110C96.1,109.1,95.6,108.8,94.7,108.8z"/>
	<path d="M102.6,111.3h-2.7l-0.6,2.8h-1.1l2.4-11.2h1.4l2.4,11.2h-1.2L102.6,111.3z M102.4,110.3l-1.2-5.8l-1.2,5.8H102.4z"/>
	<path d="M110.2,114.1l-2.1-5.8l-1.3,2.2v3.6h-1.2v-11.2h1.2v5.8l3.1-5.8h1.2l-2.4,4.2l2.6,7C111.3,114.1,110.2,114.1,110.2,114.1z"
		/>
	<path d="M112.6,114.1v-11.2h1.2v11.2H112.6z"/>
	<path d="M115.8,114.1v-11.2h1.2l3.3,8.5v-8.5h1.1v11.2h-1.1l-3.3-8.7v8.7H115.8z"/>
	<path d="M128.6,111.8c0,1.6-0.9,2.4-2.6,2.4h-0.1c-1.7,0-2.6-0.7-2.6-2.4v-6.7c0-1.6,0.9-2.4,2.6-2.4h0.1c1.7,0,2.6,0.8,2.6,2.4
		v1.5h-1.2v-1.2c0-1.2-0.5-1.6-1.5-1.6c-1.1,0-1.5,0.4-1.5,1.6v6.1c0,1.2,0.5,1.6,1.5,1.6c1.1,0,1.5-0.4,1.5-1.6v-2.1h-1.6v-1h2.8
		V111.8z"/>
	<path d="M136.9,106.8v-1.5c0-1.1-0.4-1.5-1.4-1.5s-1.4,0.5-1.4,1.5v0.8c0,0.8,0.3,1,1,1.4l1.6,0.9c0.9,0.5,1.4,1.1,1.4,2v1.5
		c0,1.6-0.9,2.3-2.6,2.3l0,0c-1.7,0-2.6-0.7-2.6-2.3V110h1.1v1.6c0,1.1,0.4,1.6,1.5,1.6s1.5-0.5,1.5-1.6v-0.9c0-0.8-0.3-1-1.1-1.5
		l-1.6-0.9c-1-0.5-1.4-1-1.4-2V105c0-1.6,1-2.3,2.6-2.3l0,0c1.5,0,2.6,0.7,2.6,2.3v1.7h-1.2V106.8z"/>
	<path d="M142.3,102.7h0.1c1.7,0,2.6,0.8,2.6,2.4v6.7c0,1.6-0.9,2.4-2.6,2.4h-0.1c-1.7,0-2.6-0.8-2.6-2.4v-6.7
		C139.7,103.5,140.6,102.7,142.3,102.7z M142.4,113.1c1.1,0,1.5-0.4,1.5-1.6v-6.1c0-1.2-0.5-1.6-1.5-1.6c-1.1,0-1.5,0.4-1.5,1.6v6.1
		C140.8,112.7,141.3,113.1,142.4,113.1z"/>
	<path d="M152.3,105.2v6.5c0,1.6-0.9,2.4-2.6,2.4H147v-11.2h2.7C151.4,102.9,152.3,103.6,152.3,105.2z M149.6,103.9h-1.5v9.1h1.5
		c1.1,0,1.5-0.4,1.5-1.6v-5.9C151.1,104.3,150.7,103.9,149.6,103.9z"/>
	<path d="M157.8,111.3h-2.7l-0.6,2.8h-1.1l2.4-11.2h1.4l2.4,11.2h-1.2L157.8,111.3z M157.6,110.3l-1.2-5.8l-1.2,5.8H157.6z"/>
	<path d="M24.8,132.5l-0.7,0.6l-0.9-1.6l-0.9,1.6l-0.7-0.6l1.2-1.3l-1.8-0.4l0.3-0.8l1.7,0.7l-0.2-1.8h0.9l-0.2,1.8l1.7-0.7l0.3,0.8
		l-1.8,0.4L24.8,132.5z"/>
	<path d="M29.5,140.1v-10.2c0.2-0.3,0.4-0.6,0.5-1h0.6v11.2H29.5z"/>
	<path d="M39.9,129.9h-2v10.2h-1.2v-10.2h-2v-1h5.2V129.9z"/>
	<path d="M41.1,140.1v-11.2h4.5v1h-3.4v4h2.9v1h-2.9v4.1h3.4v1L41.1,140.1L41.1,140.1z"/>
	<path d="M51,137.3h-2.7l-0.6,2.8h-1.1l2.4-11.2h1.4l2.4,11.2h-1.2L51,137.3z M50.8,136.3l-1.2-5.8l-1.2,5.8H50.8z"/>
	<path d="M57.7,132.8v-1.5c0-1.1-0.4-1.5-1.4-1.5s-1.4,0.5-1.4,1.5v0.8c0,0.8,0.3,1,1,1.4l1.6,0.9c0.9,0.5,1.4,1.1,1.4,2v1.5
		c0,1.6-0.9,2.3-2.6,2.3l0,0c-1.7,0-2.6-0.7-2.6-2.3V136h1.1v1.6c0,1.1,0.4,1.6,1.5,1.6s1.5-0.5,1.5-1.6v-0.9c0-0.8-0.3-1-1.1-1.5
		l-1.6-0.9c-1-0.5-1.4-1-1.4-2V131c0-1.6,1-2.3,2.6-2.3l0,0c1.5,0,2.6,0.7,2.6,2.3v1.7h-1.2V132.8z"/>
	<path d="M65.9,131.2v1.9c0,1.6-0.9,2.4-2.6,2.4h-1.6v4.6h-1.2v-11.2h2.7C65,128.9,65.9,129.6,65.9,131.2z M64.7,131.5
		c0-1.2-0.5-1.6-1.5-1.6h-1.5v4.5h1.5c1.1,0,1.5-0.4,1.5-1.6V131.5z"/>
	<path d="M70,128.7L70,128.7c1.8,0,2.7,0.8,2.7,2.4v6.7c0,1.6-0.9,2.4-2.6,2.4H70c-1.7,0-2.6-0.8-2.6-2.4v-6.7
		C67.4,129.5,68.3,128.7,70,128.7z M70.1,139.1c1.1,0,1.5-0.4,1.5-1.6v-6.1c0-1.2-0.5-1.6-1.5-1.6c-1.1,0-1.5,0.4-1.5,1.6v6.1
		C68.5,138.7,69,139.1,70.1,139.1z"/>
	<path d="M77.2,128.7L77.2,128.7c1.8,0,2.7,0.8,2.7,2.4v6.7c0,1.6-0.9,2.4-2.6,2.4h-0.1c-1.7,0-2.6-0.8-2.6-2.4v-6.7
		C74.6,129.5,75.5,128.7,77.2,128.7z M77.3,139.1c1.1,0,1.5-0.4,1.5-1.6v-6.1c0-1.2-0.5-1.6-1.5-1.6c-1.1,0-1.5,0.4-1.5,1.6v6.1
		C75.8,138.7,76.2,139.1,77.3,139.1z"/>
	<path d="M81.9,140.1v-11.2h1.2l3.3,8.5v-8.5h1.1v11.2h-1.1l-3.3-8.7v8.7H81.9z"/>
	<path d="M95.8,132.8v-1.5c0-1.1-0.4-1.5-1.4-1.5s-1.4,0.5-1.4,1.5v0.8c0,0.8,0.3,1,1,1.4l1.6,0.9c0.9,0.5,1.4,1.1,1.4,2v1.5
		c0,1.6-0.9,2.3-2.6,2.3l0,0c-1.7,0-2.6-0.7-2.6-2.3V136h1.1v1.6c0,1.1,0.4,1.6,1.5,1.6s1.5-0.5,1.5-1.6v-0.9c0-0.8-0.3-1-1.1-1.5
		l-1.6-0.9c-1-0.5-1.4-1-1.4-2V131c0-1.6,1-2.3,2.6-2.3l0,0c1.5,0,2.6,0.7,2.6,2.3v1.7h-1.2V132.8z"/>
	<path d="M102.3,137.3h-2.7l-0.6,2.8h-1.1l2.4-11.2h1.4l2.4,11.2h-1.2L102.3,137.3z M102.1,136.3l-1.2-5.8l-1.2,5.8H102.1z"/>
	<path d="M109.7,140.1h-4.3v-11.2h1.2V139h3.2L109.7,140.1L109.7,140.1z"/>
	<path d="M114.5,129.9h-2v10.2h-1.2v-10.2h-2v-1h5.2V129.9z"/>
	<path d="M24.8,158.5l-0.7,0.6l-0.9-1.6l-0.9,1.6l-0.7-0.6l1.2-1.3l-1.8-0.4l0.3-0.8l1.7,0.7l-0.2-1.8h0.9l-0.2,1.8l1.7-0.7l0.3,0.8
		l-1.8,0.4L24.8,158.5z"/>
	<path d="M29.5,166.1v-10.2c0.2-0.3,0.4-0.6,0.5-1h0.6v11.2H29.5z"/>
	<path d="M40.6,163.8c0,1.6-0.9,2.4-2.6,2.4l0,0c-1.7,0-2.6-0.7-2.6-2.4v-6.7c0-1.6,0.9-2.4,2.6-2.4l0,0c1.7,0,2.6,0.8,2.6,2.4v2
		h-1.2v-1.7c0-1.2-0.4-1.6-1.5-1.6s-1.5,0.5-1.5,1.6v6.1c0,1.2,0.4,1.6,1.5,1.6s1.5-0.5,1.5-1.6v-1.9h1.2V163.8z"/>
	<path d="M47.6,163.8c0,1.6-0.9,2.4-2.6,2.4l0,0c-1.7,0-2.6-0.7-2.6-2.4v-9h1.2v8.7c0,1.2,0.4,1.6,1.5,1.6s1.5-0.4,1.5-1.6v-8.7h1.2
		v9H47.6z"/>
	<path d="M54.9,157.2v1.9c0,1.6-0.9,2.4-2.6,2.4h-1.6v4.6h-1.2v-11.2h2.7C54,154.9,54.9,155.6,54.9,157.2z M53.8,157.5
		c0-1.2-0.5-1.6-1.5-1.6h-1.5v4.5h1.5c1.1,0,1.5-0.4,1.5-1.6V157.5z"/>
	<path d="M63,160.2c1,0.2,1.3,1,1.3,1.8v1.8c0,1.3-0.9,2.2-2.6,2.2H59v-11.2h2.7c1.7,0,2.5,0.9,2.5,2.2v1.4
		C64.3,159.2,64,160.1,63,160.2z M60.2,159.8h1.6c0.9,0,1.4-0.4,1.4-1.1v-1.3c0-1-0.4-1.4-1.4-1.4h-1.6V159.8z M61.8,160.8h-1.6v4.3
		h1.6c1,0,1.4-0.5,1.4-1.4V162C63.2,161.1,62.7,160.8,61.8,160.8z"/>
	<path d="M71.3,163.8c0,1.6-0.9,2.4-2.6,2.4h-0.1c-1.7,0-2.6-0.7-2.6-2.4v-9h1.2v8.7c0,1.2,0.4,1.6,1.5,1.6s1.5-0.4,1.5-1.6v-8.7
		h1.2L71.3,163.8L71.3,163.8z"/>
	<path d="M77.8,155.9h-2v10.2h-1.2v-10.2h-2v-1h5.2V155.9z"/>
	<path d="M83.5,155.9h-2v10.2h-1.2v-10.2h-2v-1h5.2V155.9z"/>
	<path d="M84.7,166.1v-11.2h4.5v1h-3.4v4h2.9v1h-2.9v4.1h3.4v1L84.7,166.1L84.7,166.1z"/>
	<path d="M95.4,166.1l-1.7-4.7h-0.1H92v4.7h-1.2v-11.2h2.7c1.7,0,2.6,0.8,2.6,2.4v1.7c0,1.2-0.5,1.9-1.4,2.2l1.8,4.9L95.4,166.1
		L95.4,166.1z M92.1,160.3h1.5c1.1,0,1.5-0.4,1.5-1.6v-1.2c0-1.2-0.5-1.6-1.5-1.6h-1.5V160.3z"/>
	<path d="M24.8,184.5l-0.7,0.6l-0.9-1.6l-0.9,1.6l-0.7-0.6l1.2-1.3l-1.8-0.4l0.3-0.8l1.7,0.7l-0.2-1.8h0.9l-0.2,1.8l1.7-0.7l0.3,0.8
		l-1.8,0.4L24.8,184.5z"/>
	<path d="M31.7,184.1c0.4,0.1,0.6,0.5,0.6,1v1.2c0,0.9-0.4,1.5-1.5,1.5h-0.2c-1,0-1.5-0.6-1.5-1.5v-1h0.8v0.9c0,0.6,0.2,0.8,0.7,0.8
		h0.1c0.4,0,0.7-0.2,0.7-0.8v-1c0-0.4-0.2-0.6-0.7-0.6h-0.8v-0.8h0.7c0.5,0,0.8-0.2,0.8-0.7v-0.6c0-0.6-0.2-0.8-0.7-0.8h-0.1
		c-0.4,0-0.7,0.2-0.7,0.8v0.7h-0.8v-0.8c0-0.9,0.4-1.5,1.5-1.5h0.1c1.1,0,1.5,0.6,1.5,1.5v0.8C32.2,183.6,32.1,183.9,31.7,184.1z
		 M35.9,180.9l-4.1,11.2h-0.7l4.1-11.2H35.9z M36.9,189.6h0.6v0.8h-0.6v1.6H36v-1.6h-2v-0.8l1.8-4.4h1v4.4H36.9z M34.8,189.6H36v-3
		L34.8,189.6z"/>
	<path d="M47,189.8c0,1.6-0.9,2.4-2.6,2.4l0,0c-1.7,0-2.6-0.7-2.6-2.4v-6.7c0-1.6,0.9-2.4,2.6-2.4l0,0c1.7,0,2.6,0.8,2.6,2.4v2h-1.2
		v-1.7c0-1.2-0.4-1.6-1.5-1.6s-1.5,0.5-1.5,1.6v6.1c0,1.2,0.4,1.6,1.5,1.6s1.5-0.5,1.5-1.6v-1.9H47V189.8z"/>
	<path d="M54,189.8c0,1.6-0.9,2.4-2.6,2.4h-0.1c-1.7,0-2.6-0.7-2.6-2.4v-9h1.2v8.7c0,1.2,0.4,1.6,1.5,1.6s1.5-0.4,1.5-1.6v-8.7H54
		V189.8z"/>
	<path d="M61.3,183.2v1.9c0,1.6-0.9,2.4-2.6,2.4h-1.6v4.6H56v-11.2h2.7C60.4,180.9,61.3,181.6,61.3,183.2z M60.2,183.5
		c0-1.2-0.5-1.6-1.5-1.6h-1.5v4.5h1.5c1.1,0,1.5-0.4,1.5-1.6V183.5z"/>
	<path d="M70.7,189.8c0,1.6-0.9,2.4-2.6,2.4H68c-1.7,0-2.6-0.7-2.6-2.4v-6.7c0-1.6,0.9-2.4,2.6-2.4h0.1c1.7,0,2.6,0.8,2.6,2.4v1.5
		h-1.2v-1.2c0-1.2-0.5-1.6-1.5-1.6c-1.1,0-1.5,0.4-1.5,1.6v6.1c0,1.2,0.5,1.6,1.5,1.6c1.1,0,1.5-0.4,1.5-1.6v-2.1H68v-1h2.8v3.4
		H70.7z"/>
	<path d="M77.1,192.1l-1.7-4.7h-0.1h-1.6v4.7h-1.2v-11.2h2.7c1.7,0,2.6,0.8,2.6,2.4v1.7c0,1.2-0.5,1.9-1.4,2.2l1.8,4.9L77.1,192.1
		L77.1,192.1z M73.8,186.3h1.5c1.1,0,1.5-0.4,1.5-1.6v-1.2c0-1.2-0.5-1.6-1.5-1.6h-1.5V186.3z"/>
	<path d="M83.6,189.3h-2.7l-0.6,2.8h-1.1l2.4-11.2H83l2.4,11.2h-1.2L83.6,189.3z M83.4,188.3l-1.2-5.8l-1.2,5.8H83.4z"/>
	<path d="M86.6,192.1v-11.2h1.2l3.3,8.5v-8.5h1.1v11.2h-1.1l-3.3-8.7v8.7H86.6z"/>
	<path d="M99.4,189.8c0,1.6-0.9,2.4-2.6,2.4h-0.1c-1.7,0-2.6-0.7-2.6-2.4v-9h1.2v8.7c0,1.2,0.4,1.6,1.5,1.6s1.5-0.4,1.5-1.6v-8.7
		h1.2L99.4,189.8L99.4,189.8z"/>
	<path d="M105.6,192.1h-4.3v-11.2h1.2V191h3.2L105.6,192.1L105.6,192.1z"/>
	<path d="M110.7,189.3H108l-0.6,2.8h-1.1l2.4-11.2h1.4l2.4,11.2h-1.2L110.7,189.3z M110.5,188.3l-1.2-5.8l-1.2,5.8H110.5z"/>
	<path d="M117.4,181.9h-2v10.2h-1.2v-10.2h-2v-1h5.2V181.9z"/>
	<path d="M118.7,192.1v-11.2h4.5v1h-3.4v4h2.9v1h-2.9v4.1h3.4v1L118.7,192.1L118.7,192.1z"/>
	<path d="M130.1,183.2v6.5c0,1.6-0.9,2.4-2.6,2.4h-2.7v-11.2h2.7C129.2,180.9,130.1,181.6,130.1,183.2z M127.5,181.9H126v9.1h1.5
		c1.1,0,1.5-0.4,1.5-1.6v-5.9C129,182.3,128.5,181.9,127.5,181.9z"/>
	<path d="M138.4,184.8v-1.5c0-1.1-0.4-1.5-1.4-1.5s-1.4,0.5-1.4,1.5v0.8c0,0.8,0.3,1,1,1.4l1.6,0.9c0.9,0.5,1.4,1.1,1.4,2v1.5
		c0,1.6-0.9,2.3-2.6,2.3l0,0c-1.7,0-2.6-0.7-2.6-2.3V188h1.1v1.6c0,1.1,0.4,1.6,1.5,1.6s1.5-0.5,1.5-1.6v-0.9c0-0.8-0.3-1-1.1-1.5
		l-1.6-0.9c-1-0.5-1.4-1-1.4-2V183c0-1.6,1-2.3,2.6-2.3l0,0c1.5,0,2.6,0.7,2.6,2.3v1.7h-1.2V184.8z"/>
	<path d="M146.5,189.8c0,1.6-0.9,2.4-2.6,2.4h-0.1c-1.7,0-2.6-0.7-2.6-2.4v-9h1.2v8.7c0,1.2,0.4,1.6,1.5,1.6s1.5-0.4,1.5-1.6v-8.7
		h1.2L146.5,189.8L146.5,189.8z"/>
	<path d="M153.8,189.8c0,1.6-0.9,2.4-2.6,2.4H151c-1.7,0-2.6-0.7-2.6-2.4v-6.7c0-1.6,0.9-2.4,2.6-2.4h0.1c1.7,0,2.6,0.8,2.6,2.4v1.5
		h-1.2v-1.2c0-1.2-0.5-1.6-1.5-1.6c-1.1,0-1.5,0.4-1.5,1.6v6.1c0,1.2,0.5,1.6,1.5,1.6c1.1,0,1.5-0.4,1.5-1.6v-2.1H151v-1h2.8V189.8z
		"/>
	<path d="M159.3,189.3h-2.7l-0.6,2.8h-1.1l2.4-11.2h1.4l2.4,11.2h-1.2L159.3,189.3z M159.1,188.3l-1.2-5.8l-1.2,5.8H159.1z"/>
	<path d="M166.8,192.1l-1.7-4.7H165h-1.6v4.7h-1.2v-11.2h2.7c1.7,0,2.6,0.8,2.6,2.4v1.7c0,1.2-0.5,1.9-1.4,2.2l1.8,4.9L166.8,192.1
		L166.8,192.1z M163.5,186.3h1.5c1.1,0,1.5-0.4,1.5-1.6v-1.2c0-1.2-0.5-1.6-1.5-1.6h-1.5V186.3z"/>
</g>
<g>
	<path d="M180.2,80.5l-0.7,0.6l-0.9-1.6l-0.9,1.6l-0.7-0.6l1.2-1.3l-1.8-0.4l0.3-0.8l1.7,0.7l-0.2-1.8h0.9l-0.2,1.8l1.7-0.7l0.3,0.8
		l-1.8,0.4L180.2,80.5z"/>
	<path d="M184.5,83.6v-6.1c0.2-0.2,0.3-0.4,0.4-0.7h0.5v6.8C185.4,83.6,184.5,83.6,184.5,83.6z M189.5,76.9l-4.1,11.2h-0.7l4.1-11.2
		H189.5z M190.9,84.5c0.4,0.1,0.6,0.5,0.6,1v1.2c0,0.9-0.4,1.5-1.5,1.5h-0.2c-1,0-1.5-0.6-1.5-1.5v-1h0.8v0.9c0,0.6,0.2,0.8,0.7,0.8
		h0.1c0.4,0,0.7-0.2,0.7-0.8v-1c0-0.4-0.2-0.6-0.6-0.6h-0.8v-0.8h0.7c0.5,0,0.7-0.2,0.7-0.7v-0.6c0-0.6-0.2-0.8-0.7-0.8h-0.1
		c-0.4,0-0.7,0.2-0.7,0.8v0.7h-0.8v-0.8c0-0.9,0.4-1.5,1.5-1.5h0.1c1.1,0,1.5,0.6,1.5,1.5v0.8C191.5,84,191.3,84.4,190.9,84.5z"/>
	<path d="M201,85.8c0,1.6-0.9,2.4-2.6,2.4l0,0c-1.7,0-2.6-0.7-2.6-2.4v-6.7c0-1.6,0.9-2.4,2.6-2.4l0,0c1.7,0,2.6,0.8,2.6,2.4v2h-1.2
		v-1.7c0-1.2-0.4-1.6-1.5-1.6s-1.5,0.5-1.5,1.6v6.1c0,1.2,0.4,1.6,1.5,1.6s1.5-0.5,1.5-1.6v-1.9h1.2V85.8z"/>
	<path d="M208,85.8c0,1.6-0.9,2.4-2.6,2.4h-0.1c-1.7,0-2.6-0.7-2.6-2.4v-9h1.2v8.7c0,1.2,0.4,1.6,1.5,1.6s1.5-0.4,1.5-1.6v-8.7h1.2
		L208,85.8L208,85.8z"/>
	<path d="M215.3,79.2v1.9c0,1.6-0.9,2.4-2.6,2.4h-1.6v4.6H210V76.9h2.7C214.4,76.9,215.3,77.6,215.3,79.2z M214.2,79.5
		c0-1.2-0.5-1.6-1.5-1.6h-1.5v4.5h1.5c1.1,0,1.5-0.4,1.5-1.6V79.5z"/>
	<path d="M224.8,79.2v1.9c0,1.6-0.9,2.4-2.6,2.4h-1.6v4.6h-1.2V76.9h2.7C223.8,76.9,224.8,77.6,224.8,79.2z M223.6,79.5
		c0-1.2-0.5-1.6-1.5-1.6h-1.5v4.5h1.5c1.1,0,1.5-0.4,1.5-1.6V79.5z"/>
	<path d="M229.7,85.3H227l-0.6,2.8h-1.1l2.4-11.2h1.4l2.4,11.2h-1.2L229.7,85.3z M229.5,84.3l-1.2-5.8l-1.2,5.8H229.5z"/>
	<path d="M237.9,85.8c0,1.6-0.9,2.4-2.6,2.4l0,0c-1.7,0-2.6-0.7-2.6-2.4v-6.7c0-1.6,0.9-2.4,2.6-2.4l0,0c1.7,0,2.6,0.8,2.6,2.4v2
		h-1.2v-1.7c0-1.2-0.4-1.6-1.5-1.6s-1.5,0.5-1.5,1.6v6.1c0,1.2,0.4,1.6,1.5,1.6s1.5-0.5,1.5-1.6v-1.9h1.2V85.8z"/>
	<path d="M244.3,88.1l-2.1-5.8l-1.3,2.2v3.6h-1.2V76.9h1.2v5.8l3.1-5.8h1.2l-2.4,4.2l2.6,7H244.3z"/>
	<path d="M246.6,88.1V76.9h4.5v1h-3.4v4h2.9v1h-2.9V87h3.4v1L246.6,88.1L246.6,88.1z"/>
	<path d="M258.1,79.2v6.5c0,1.6-0.9,2.4-2.6,2.4h-2.7V76.9h2.7C257.2,76.9,258.1,77.6,258.1,79.2z M255.4,77.9H254V87h1.5
		c1.1,0,1.5-0.4,1.5-1.6v-5.9C257,78.3,256.5,77.9,255.4,77.9z"/>
	<path d="M266.6,82.2c1,0.2,1.3,1,1.3,1.8v1.8c0,1.3-0.9,2.2-2.6,2.2h-2.7V76.9h2.7c1.7,0,2.5,0.9,2.5,2.2v1.4
		C267.8,81.2,267.5,82.1,266.6,82.2z M263.7,81.8h1.6c0.9,0,1.4-0.4,1.4-1.1v-1.3c0-1-0.4-1.4-1.4-1.4h-1.6V81.8z M265.3,82.8h-1.6
		V87h1.6c1,0,1.4-0.5,1.4-1.4v-1.7C266.7,83.1,266.2,82.8,265.3,82.8z"/>
	<path d="M274.2,88.1l-1.7-4.7h-0.1h-1.6v4.7h-1.2V76.9h2.7c1.7,0,2.6,0.8,2.6,2.4V81c0,1.2-0.5,1.9-1.4,2.2l1.8,4.9H274.2z
		 M270.8,82.3h1.5c1.1,0,1.5-0.4,1.5-1.6v-1.2c0-1.2-0.5-1.6-1.5-1.6h-1.5V82.3z"/>
	<path d="M279.3,76.7h0.1c1.7,0,2.6,0.8,2.6,2.4v6.7c0,1.6-0.9,2.4-2.6,2.4h-0.1c-1.7,0-2.6-0.8-2.6-2.4v-6.7
		C276.7,77.5,277.6,76.7,279.3,76.7z M279.4,87.1c1.1,0,1.5-0.4,1.5-1.6v-6.1c0-1.2-0.5-1.6-1.5-1.6c-1.1,0-1.5,0.4-1.5,1.6v6.1
		C277.8,86.7,278.3,87.1,279.4,87.1z"/>
	<path d="M291,88.1h-1.1l-1.8-9l-1.8,9h-1.2l-1.8-11.2h1.2l1.3,9l1.8-9h1.1l1.8,9l1.3-9h1.1L291,88.1z"/>
	<path d="M294.2,88.1V76.9h1.2l3.3,8.5v-8.5h1.1v11.2h-1.1l-3.3-8.7v8.7H294.2z"/>
	<path d="M308,80.8v-1.5c0-1.1-0.4-1.5-1.4-1.5s-1.4,0.5-1.4,1.5v0.8c0,0.8,0.3,1,1,1.4l1.6,0.9c0.9,0.5,1.4,1.1,1.4,2v1.5
		c0,1.6-0.9,2.3-2.6,2.3l0,0c-1.7,0-2.6-0.7-2.6-2.3V84h1.1v1.6c0,1.1,0.4,1.6,1.5,1.6s1.5-0.5,1.5-1.6v-0.9c0-0.8-0.3-1-1.1-1.5
		l-1.6-0.9c-1-0.5-1.4-1-1.4-2V79c0-1.6,1-2.3,2.6-2.3l0,0c1.5,0,2.6,0.7,2.6,2.3v1.7H308V80.8z"/>
	<path d="M316.1,85.8c0,1.6-0.9,2.4-2.6,2.4h-0.1c-1.7,0-2.6-0.7-2.6-2.4v-9h1.2v8.7c0,1.2,0.4,1.6,1.5,1.6s1.5-0.4,1.5-1.6v-8.7
		h1.2v9H316.1z"/>
	<path d="M323.4,85.8c0,1.6-0.9,2.4-2.6,2.4h-0.1c-1.7,0-2.6-0.7-2.6-2.4v-6.7c0-1.6,0.9-2.4,2.6-2.4h0.1c1.7,0,2.6,0.8,2.6,2.4v1.5
		h-1.2v-1.2c0-1.2-0.5-1.6-1.5-1.6s-1.5,0.4-1.5,1.6v6.1c0,1.2,0.5,1.6,1.5,1.6s1.5-0.4,1.5-1.6v-2.1h-1.6v-1h2.8L323.4,85.8
		L323.4,85.8z"/>
	<path d="M328.9,85.3h-2.7l-0.6,2.8h-1.1l2.4-11.2h1.4l2.4,11.2h-1.2L328.9,85.3z M328.7,84.3l-1.2-5.8l-1.2,5.8H328.7z"/>
	<path d="M336.4,88.1l-1.7-4.7h-0.1H333v4.7h-1.2V76.9h2.7c1.7,0,2.6,0.8,2.6,2.4V81c0,1.2-0.5,1.9-1.4,2.2l1.8,4.9H336.4z
		 M333.1,82.3h1.5c1.1,0,1.5-0.4,1.5-1.6v-1.2c0-1.2-0.5-1.6-1.5-1.6h-1.5V82.3z"/>
	<path d="M180.2,106.5l-0.7,0.6l-0.9-1.6l-0.9,1.6l-0.7-0.6l1.2-1.3l-1.8-0.4l0.3-0.8l1.7,0.7l-0.2-1.8h0.9l-0.2,1.8l1.7-0.7
		l0.3,0.8l-1.8,0.4L180.2,106.5z"/>
	<path d="M184.9,114.1v-10.2c0.2-0.3,0.4-0.6,0.5-1h0.6v11.2H184.9z"/>
	<path d="M195.3,103.9h-2v10.2h-1.2v-10.2h-2v-1h5.2V103.9z"/>
	<path d="M196.5,114.1v-11.2h4.5v1h-3.4v4h2.9v1h-2.9v4.1h3.4v1L196.5,114.1L196.5,114.1z"/>
	<path d="M206.4,111.3h-2.7l-0.6,2.8H202l2.4-11.2h1.4l2.4,11.2H207L206.4,111.3z M206.2,110.3l-1.2-5.8l-1.2,5.8H206.2z"/>
	<path d="M213.1,106.8v-1.5c0-1.1-0.4-1.5-1.4-1.5s-1.4,0.5-1.4,1.5v0.8c0,0.8,0.3,1,1,1.4l1.6,0.9c0.9,0.5,1.4,1.1,1.4,2v1.5
		c0,1.6-0.9,2.3-2.6,2.3l0,0c-1.7,0-2.6-0.7-2.6-2.3V110h1.1v1.6c0,1.1,0.4,1.6,1.5,1.6s1.5-0.5,1.5-1.6v-0.9c0-0.8-0.3-1-1.1-1.5
		l-1.6-0.9c-1-0.5-1.4-1-1.4-2V105c0-1.6,1-2.3,2.6-2.3l0,0c1.5,0,2.6,0.7,2.6,2.3v1.7h-1.2V106.8z"/>
	<path d="M221.3,105.2v1.9c0,1.6-0.9,2.4-2.6,2.4h-1.6v4.6H216v-11.2h2.7C220.4,102.9,221.3,103.6,221.3,105.2z M220.1,105.5
		c0-1.2-0.5-1.6-1.5-1.6h-1.5v4.5h1.5c1.1,0,1.5-0.4,1.5-1.6V105.5z"/>
	<path d="M225.4,102.7h0.1c1.7,0,2.6,0.8,2.6,2.4v6.7c0,1.6-0.9,2.4-2.6,2.4h-0.1c-1.7,0-2.6-0.8-2.6-2.4v-6.7
		C222.8,103.5,223.7,102.7,225.4,102.7z M225.5,113.1c1.1,0,1.5-0.4,1.5-1.6v-6.1c0-1.2-0.5-1.6-1.5-1.6c-1.1,0-1.5,0.4-1.5,1.6v6.1
		C223.9,112.7,224.4,113.1,225.5,113.1z"/>
	<path d="M232.6,102.7h0.1c1.7,0,2.6,0.8,2.6,2.4v6.7c0,1.6-0.9,2.4-2.6,2.4h-0.1c-1.7,0-2.6-0.8-2.6-2.4v-6.7
		C230,103.5,231,102.7,232.6,102.7z M232.7,113.1c1.1,0,1.5-0.4,1.5-1.6v-6.1c0-1.2-0.5-1.6-1.5-1.6c-1.1,0-1.5,0.4-1.5,1.6v6.1
		C231.2,112.7,231.6,113.1,232.7,113.1z"/>
	<path d="M237.3,114.1v-11.2h1.2l3.3,8.5v-8.5h1.1v11.2h-1.1l-3.3-8.7v8.7H237.3z"/>
	<path d="M250.1,114.1h-1.2l-2.3-11.2h1.2l1.8,9.3l1.8-9.3h1.1L250.1,114.1z"/>
	<path d="M256.9,111.3h-2.7l-0.6,2.8h-1.1l2.4-11.2h1.4l2.4,11.2h-1.2L256.9,111.3z M256.7,110.3l-1.2-5.8l-1.2,5.8H256.7z"/>
	<path d="M260,114.1v-11.2h1.2l3.3,8.5v-8.5h1.1v11.2h-1.1l-3.3-8.7v8.7H260z"/>
	<path d="M267.5,114.1v-11.2h1.2v11.2H267.5z"/>
	<path d="M275.1,114.1h-4.3v-11.2h1.2V113h3.2v1.1H275.1z"/>
	<path d="M280.7,114.1h-4.3v-11.2h1.2V113h3.2v1.1H280.7z"/>
	<path d="M285.7,111.3H283l-0.6,2.8h-1.1l2.4-11.2h1.4l2.4,11.2h-1.2L285.7,111.3z M285.5,110.3l-1.2-5.8l-1.2,5.8H285.5z"/>
	<path d="M291.1,114.1v-11.2h4.5v1h-3.4v4h2.9v1h-2.9v4.1h3.4v1L291.1,114.1L291.1,114.1z"/>
	<path d="M300.3,108.3l2.3,5.7h-1.2l-1.8-4.7l-1.8,4.7h-1.2l2.4-5.8l-2.2-5.4h1.2l1.7,4.4l1.6-4.4h1.2L300.3,108.3z"/>
	<path d="M308.4,103.9h-2v10.2h-1.2v-10.2h-2v-1h5.2V103.9z"/>
	<path d="M314.1,114.1l-1.7-4.7h-0.1h-1.6v4.7h-1.2v-11.2h2.7c1.7,0,2.6,0.8,2.6,2.4v1.7c0,1.2-0.5,1.9-1.4,2.2l1.8,4.9H314.1z
		 M310.8,108.3h1.5c1.1,0,1.5-0.4,1.5-1.6v-1.2c0-1.2-0.5-1.6-1.5-1.6h-1.5V108.3z"/>
	<path d="M320.6,111.3h-2.7l-0.6,2.8h-1.1l2.4-11.2h1.4l2.4,11.2h-1.2L320.6,111.3z M320.4,110.3l-1.2-5.8l-1.2,5.8H320.4z"/>
	<path d="M328.8,111.8c0,1.6-0.9,2.4-2.6,2.4l0,0c-1.7,0-2.6-0.7-2.6-2.4v-6.7c0-1.6,0.9-2.4,2.6-2.4l0,0c1.7,0,2.6,0.8,2.6,2.4v2
		h-1.2v-1.7c0-1.2-0.4-1.6-1.5-1.6s-1.5,0.5-1.5,1.6v6.1c0,1.2,0.4,1.6,1.5,1.6s1.5-0.5,1.5-1.6v-1.9h1.2V111.8z"/>
	<path d="M335.1,103.9h-2v10.2h-1.2v-10.2h-2v-1h5.2V103.9z"/>
	<path d="M180.2,132.5l-0.7,0.6l-0.9-1.6l-0.9,1.6l-0.7-0.6l1.2-1.3l-1.8-0.4l0.3-0.8l1.7,0.7l-0.2-1.8h0.9l-0.2,1.8l1.7-0.7
		l0.3,0.8l-1.8,0.4L180.2,132.5z"/>
	<path d="M184.5,131c0-1.6,0.8-2.3,2.4-2.3l0,0c1.6,0,2.4,0.7,2.4,2.3v1.6c0,1.2-1,1.8-2.1,2.8c-1.1,0.9-1.7,1.5-1.7,2.4v1.3h3.8v1
		h-4.9v-2.3c0-1.4,1-2.3,2.2-3.2c1-0.8,1.6-1.2,1.6-2v-1.3c0-1-0.5-1.5-1.4-1.5s-1.3,0.5-1.3,1.5v1.4h-1.1V131H184.5z"/>
	<path d="M198,140.1h-4.3v-11.2h1.2V139h3.2L198,140.1L198,140.1z"/>
	<path d="M203,137.3h-2.7l-0.6,2.8h-1.1l2.4-11.2h1.4l2.4,11.2h-1.2L203,137.3z M202.8,136.3l-1.2-5.8l-1.2,5.8H202.8z"/>
	<path d="M210.5,140.1l-1.7-4.7h-0.1h-1.6v4.7H206v-11.2h2.7c1.7,0,2.6,0.8,2.6,2.4v1.7c0,1.2-0.5,1.9-1.4,2.2l1.8,4.9L210.5,140.1
		L210.5,140.1z M207.2,134.3h1.5c1.1,0,1.5-0.4,1.5-1.6v-1.2c0-1.2-0.5-1.6-1.5-1.6h-1.5V134.3z"/>
	<path d="M218.5,137.8c0,1.6-0.9,2.4-2.6,2.4h-0.1c-1.7,0-2.6-0.7-2.6-2.4v-6.7c0-1.6,0.9-2.4,2.6-2.4h0.1c1.7,0,2.6,0.8,2.6,2.4
		v1.5h-1.2v-1.2c0-1.2-0.5-1.6-1.5-1.6c-1.1,0-1.5,0.4-1.5,1.6v6.1c0,1.2,0.5,1.6,1.5,1.6c1.1,0,1.5-0.4,1.5-1.6v-2.1h-1.6v-1h2.8
		V137.8z"/>
	<path d="M220.3,140.1v-11.2h4.5v1h-3.4v4h2.9v1h-2.9v4.1h3.4v1L220.3,140.1L220.3,140.1z"/>
	<path d="M229.1,140.1v-11.2h4.5v1h-3.4v4h2.9v1h-2.9v4.1h3.4v1L229.1,140.1L229.1,140.1z"/>
	<path d="M240.5,137.8c0,1.6-0.9,2.4-2.6,2.4h-0.1c-1.7,0-2.6-0.7-2.6-2.4v-6.7c0-1.6,0.9-2.4,2.6-2.4h0.1c1.7,0,2.6,0.8,2.6,2.4
		v1.5h-1.2v-1.2c0-1.2-0.5-1.6-1.5-1.6s-1.5,0.4-1.5,1.6v6.1c0,1.2,0.5,1.6,1.5,1.6s1.5-0.4,1.5-1.6v-2.1h-1.6v-1h2.8V137.8z"/>
	<path d="M247.7,137.8c0,1.6-0.9,2.4-2.6,2.4H245c-1.7,0-2.6-0.7-2.6-2.4v-6.7c0-1.6,0.9-2.4,2.6-2.4h0.1c1.7,0,2.6,0.8,2.6,2.4v1.5
		h-1.2v-1.2c0-1.2-0.5-1.6-1.5-1.6c-1.1,0-1.5,0.4-1.5,1.6v6.1c0,1.2,0.5,1.6,1.5,1.6c1.1,0,1.5-0.4,1.5-1.6v-2.1H245v-1h2.8v3.4
		H247.7z"/>
	<path d="M253.4,132.8v-1.5c0-1.1-0.4-1.5-1.4-1.5s-1.4,0.5-1.4,1.5v0.8c0,0.8,0.3,1,1,1.4l1.6,0.9c0.9,0.5,1.4,1.1,1.4,2v1.5
		c0,1.6-0.9,2.3-2.6,2.3l0,0c-1.7,0-2.6-0.7-2.6-2.3V136h1.1v1.6c0,1.1,0.4,1.6,1.5,1.6s1.5-0.5,1.5-1.6v-0.9c0-0.8-0.3-1-1.1-1.5
		l-1.6-0.9c-1-0.5-1.4-1-1.4-2V131c0-1.6,1-2.3,2.6-2.3l0,0c1.5,0,2.6,0.7,2.6,2.3v1.7h-1.2V132.8z"/>
	<path d="M180.2,158.5l-0.7,0.6l-0.9-1.6l-0.9,1.6l-0.7-0.6l1.2-1.3l-1.8-0.4l0.3-0.8l1.7,0.7l-0.2-1.8h0.9l-0.2,1.8l1.7-0.7
		l0.3,0.8l-1.8,0.4L180.2,158.5z"/>
	<path d="M184.9,166.1v-10.2c0.2-0.3,0.4-0.6,0.5-1h0.6v11.2H184.9z"/>
	<path d="M190.5,161.6v-6c0.2-0.2,0.3-0.4,0.4-0.7h0.5v6.8h-0.9V161.6z M195.5,154.9l-4.1,11.2h-0.7l4.1-11.2H195.5z M194.3,160.6
		c0-0.9,0.5-1.4,1.5-1.4l0,0c1,0,1.6,0.5,1.6,1.4v0.7c0,0.9-0.7,1.3-1.4,1.9c-0.7,0.6-0.9,0.9-0.9,1.4v0.6h2.3v0.8h-3.1v-1.4
		c0-0.9,0.5-1.4,1.2-2s1-0.8,1-1.3v-0.5c0-0.5-0.2-0.8-0.7-0.8s-0.7,0.3-0.7,0.8v1h-0.8L194.3,160.6L194.3,160.6z"/>
	<path d="M206.9,163.8c0,1.6-0.9,2.4-2.6,2.4l0,0c-1.7,0-2.6-0.7-2.6-2.4v-6.7c0-1.6,0.9-2.4,2.6-2.4l0,0c1.7,0,2.6,0.8,2.6,2.4v2
		h-1.2v-1.7c0-1.2-0.4-1.6-1.5-1.6s-1.5,0.5-1.5,1.6v6.1c0,1.2,0.4,1.6,1.5,1.6s1.5-0.5,1.5-1.6v-1.9h1.2V163.8z"/>
	<path d="M213.9,163.8c0,1.6-0.9,2.4-2.6,2.4h-0.1c-1.7,0-2.6-0.7-2.6-2.4v-9h1.2v8.7c0,1.2,0.4,1.6,1.5,1.6s1.5-0.4,1.5-1.6v-8.7
		h1.2L213.9,163.8L213.9,163.8z"/>
	<path d="M221.2,157.2v1.9c0,1.6-0.9,2.4-2.6,2.4H217v4.6h-1.2v-11.2h2.7C220.3,154.9,221.2,155.6,221.2,157.2z M220.1,157.5
		c0-1.2-0.5-1.6-1.5-1.6H217v4.5h1.5c1.1,0,1.5-0.4,1.5-1.6v-1.3H220.1z"/>
	<path d="M226.6,158.8v-1.5c0-1.1-0.4-1.5-1.4-1.5s-1.4,0.5-1.4,1.5v0.8c0,0.8,0.3,1,1,1.4l1.6,0.9c0.9,0.5,1.4,1.1,1.4,2v1.5
		c0,1.6-0.9,2.3-2.6,2.3l0,0c-1.7,0-2.6-0.7-2.6-2.3V162h1.1v1.6c0,1.1,0.4,1.6,1.5,1.6s1.5-0.5,1.5-1.6v-0.9c0-0.8-0.3-1-1.1-1.5
		l-1.6-0.9c-1-0.5-1.4-1-1.4-2V157c0-1.6,1-2.3,2.6-2.3l0,0c1.5,0,2.6,0.7,2.6,2.3v1.7h-1.2V158.8z"/>
	<path d="M237.3,163.8c0,1.6-0.9,2.4-2.6,2.4l0,0c-1.7,0-2.6-0.7-2.6-2.4v-6.7c0-1.6,0.9-2.4,2.6-2.4l0,0c1.7,0,2.6,0.8,2.6,2.4v2
		h-1.2v-1.7c0-1.2-0.4-1.6-1.5-1.6s-1.5,0.5-1.5,1.6v6.1c0,1.2,0.4,1.6,1.5,1.6s1.5-0.5,1.5-1.6v-1.9h1.2V163.8z"/>
	<path d="M240.3,154.9v5h3.2v-5h1.2v11.2h-1.2v-5.2h-3.2v5.2h-1.2v-11.2H240.3z"/>
	<path d="M249.1,154.7h0.1c1.7,0,2.6,0.8,2.6,2.4v6.7c0,1.6-0.9,2.4-2.6,2.4h-0.1c-1.7,0-2.6-0.8-2.6-2.4v-6.7
		C246.5,155.5,247.4,154.7,249.1,154.7z M249.2,165.1c1.1,0,1.5-0.4,1.5-1.6v-6.1c0-1.2-0.5-1.6-1.5-1.6c-1.1,0-1.5,0.4-1.5,1.6v6.1
		C247.6,164.7,248.1,165.1,249.2,165.1z"/>
	<path d="M259,163.8c0,1.6-0.9,2.4-2.6,2.4l0,0c-1.7,0-2.6-0.7-2.6-2.4v-6.7c0-1.6,0.9-2.4,2.6-2.4l0,0c1.7,0,2.6,0.8,2.6,2.4v2
		h-1.2v-1.7c0-1.2-0.4-1.6-1.5-1.6s-1.5,0.5-1.5,1.6v6.1c0,1.2,0.4,1.6,1.5,1.6s1.5-0.5,1.5-1.6v-1.9h1.2V163.8z"/>
	<path d="M263.4,154.7h0.1c1.7,0,2.6,0.8,2.6,2.4v6.7c0,1.6-0.9,2.4-2.6,2.4h-0.1c-1.7,0-2.6-0.8-2.6-2.4v-6.7
		C260.8,155.5,261.7,154.7,263.4,154.7z M263.5,165.1c1.1,0,1.5-0.4,1.5-1.6v-6.1c0-1.2-0.5-1.6-1.5-1.6c-1.1,0-1.5,0.4-1.5,1.6v6.1
		C261.9,164.7,262.4,165.1,263.5,165.1z"/>
	<path d="M272.4,166.1h-4.3v-11.2h1.2V165h3.2v1.1H272.4z"/>
	<path d="M277.4,163.3h-2.7l-0.6,2.8H273l2.4-11.2h1.4l2.4,11.2H278L277.4,163.3z M277.2,162.3l-1.2-5.8l-1.2,5.8H277.2z"/>
	<path d="M284.2,155.9h-2v10.2H281v-10.2h-2v-1h5.2V155.9z"/>
	<path d="M285.4,166.1v-11.2h4.5v1h-3.4v4h2.9v1h-2.9v4.1h3.4v1L285.4,166.1L285.4,166.1z"/>
	<path d="M299.4,163.8c0,1.6-0.9,2.4-2.6,2.4l0,0c-1.7,0-2.6-0.7-2.6-2.4v-6.7c0-1.6,0.9-2.4,2.6-2.4l0,0c1.7,0,2.6,0.8,2.6,2.4v2
		h-1.2v-1.7c0-1.2-0.4-1.6-1.5-1.6s-1.5,0.5-1.5,1.6v6.1c0,1.2,0.4,1.6,1.5,1.6s1.5-0.5,1.5-1.6v-1.9h1.2V163.8z"/>
	<path d="M302.4,154.9v5h3.2v-5h1.2v11.2h-1.2v-5.2h-3.2v5.2h-1.2v-11.2H302.4z"/>
	<path d="M308.8,166.1v-11.2h1.2v11.2H308.8z"/>
	<path d="M317.3,157.2v1.9c0,1.6-0.9,2.4-2.6,2.4h-1.6v4.6h-1.2v-11.2h2.7C316.3,154.9,317.3,155.6,317.3,157.2z M316.1,157.5
		c0-1.2-0.5-1.6-1.5-1.6h-1.5v4.5h1.5c1.1,0,1.5-0.4,1.5-1.6V157.5z"/>
	<path d="M322.6,158.8v-1.5c0-1.1-0.4-1.5-1.4-1.5s-1.4,0.5-1.4,1.5v0.8c0,0.8,0.3,1,1,1.4l1.6,0.9c0.9,0.5,1.4,1.1,1.4,2v1.5
		c0,1.6-0.9,2.3-2.6,2.3l0,0c-1.7,0-2.6-0.7-2.6-2.3V162h1.1v1.6c0,1.1,0.4,1.6,1.5,1.6s1.5-0.5,1.5-1.6v-0.9c0-0.8-0.3-1-1.1-1.5
		l-1.6-0.9c-1-0.5-1.4-1-1.4-2V157c0-1.6,1-2.3,2.6-2.3l0,0c1.5,0,2.6,0.7,2.6,2.3v1.7h-1.2V158.8z"/>
</g>
<g>
	<path class="st1" d="M59.1,42.7l-5.3-8.9h-0.2l-3.1,0.6l1.8,9.5l-2.3,0.5l-4.4-22.5l5.4-1.1c3.4-0.7,5.5,0.5,6.3,3.7l0.7,3.6
		c0.5,2.3-0.2,4.1-2,5l5.7,9.1L59.1,42.7z M49.9,32.6l3-0.6c2.2-0.4,3-1.5,2.5-3.8l-0.5-2.3c-0.5-2.3-1.6-3.1-3.7-2.6l-3,0.6
		L49.9,32.6z"/>
	<path class="st1" d="M64.5,41.7L60,19.2l9.1-1.8l0.4,2.1l-6.8,1.4l1.6,8l5.8-1.1l0.4,2.1l-5.8,1.1l1.6,8.4l6.9-1.4l0.4,2.1
		L64.5,41.7z"/>
	<path class="st1" d="M86.5,32.6c0.6,3.3-0.9,5.2-4.3,5.8h-0.1c-3.4,0.7-5.5-0.4-6.3-3.7l-2.7-13.5c-0.6-3.2,0.9-5.2,4.3-5.8h0.1
		c3.4-0.7,5.7,0.6,6.3,3.7l0.7,3.9l-2.3,0.5l-0.6-3.3c-0.5-2.3-1.5-3.1-3.7-2.7c-2.1,0.4-2.8,1.5-2.3,3.8L78,33.7
		c0.5,2.3,1.5,3.1,3.7,2.7c2.1-0.4,2.8-1.5,2.3-3.8l-0.7-3.9l2.3-0.5L86.5,32.6z"/>
	<path class="st1" d="M91.2,36.4l-4.4-22.5l2.3-0.5l4.4,22.5L91.2,36.4z"/>
	<path class="st1" d="M104.8,15.2l0.7,3.8c0.6,3.2-0.9,5.2-4.3,5.8l-3.1,0.6l1.8,9.2l-2.3,0.5l-4.4-22.5l5.4-1.1
		C102,10.8,104.2,11.9,104.8,15.2z M102.6,16.2c-0.5-2.3-1.6-3.1-3.7-2.6l-3,0.6l1.8,9.1l3-0.6c2.2-0.4,3-1.5,2.5-3.8L102.6,16.2z"
		/>
	<path class="st1" d="M111.6,32.3l-4.4-22.5l9.1-1.8l0.4,2.1l-6.8,1.4l1.6,8l5.8-1.1l0.4,2.1l-5.8,1.1l1.6,8.4l6.9-1.4l0.4,2.1
		L111.6,32.3z"/>
</g>
</svg>
