<?xml version="1.0" encoding="utf-8"?>
<!-- Generator: Adobe Illustrator 22.1.0, SVG Export Plug-In . SVG Version: 6.00 Build 0)  -->
<svg version="1.1" xmlns="http://www.w3.org/2000/svg" xmlns:xlink="http://www.w3.org/1999/xlink" x="0px" y="0px"
	 viewBox="0 0 1024 768" style="enable-background:new 0 0 1024 768;" xml:space="preserve">
<style type="text/css">
	.st0{fill:none;}
	.st1{opacity:0.5;fill:#EE232A;}
	.st2{fill:url(#New_Pattern_2);}
	.st3{display:none;}
	.st4{display:inline;fill:#98BEE5;stroke:#000000;stroke-miterlimit:10;}
	.st5{display:inline;fill:#FAF392;stroke:#000000;stroke-miterlimit:10;}
	.st6{display:inline;fill:#2D2A44;stroke:#000000;stroke-miterlimit:10;}
	.st7{display:inline;fill:#FFFFFF;stroke:#000000;stroke-miterlimit:10;}
</style>
<pattern  width="100" height="100" patternUnits="userSpaceOnUse" id="New_Pattern_2" viewBox="63.8 -164.5 100 100" style="overflow:visible;">
	<g>
		<rect x="63.8" y="-164.5" class="st0" width="100" height="100"/>
		<g>
			
				<rect x="63.8" y="-65.5" transform="matrix(-1 -1.224647e-16 1.224647e-16 -1 227.5406 -65.5406)" class="st1" width="100" height="65.5"/>
		</g>
		<g>
			
				<rect x="63.8" y="-165.5" transform="matrix(-1 -1.224647e-16 1.224647e-16 -1 227.5406 -265.5406)" class="st1" width="100" height="65.5"/>
			
				<rect x="82.8" y="-147.3" transform="matrix(-1.836970e-16 1 -1 -1.836970e-16 18.2796 -247.261)" class="st1" width="100" height="65.5"/>
		</g>
		<g>
			
				<rect x="-17.2" y="-147.3" transform="matrix(-1.836970e-16 1 -1 -1.836970e-16 -81.7204 -147.261)" class="st1" width="100" height="65.5"/>
		</g>
	</g>
</pattern>
<g id="Layer_1">
	<rect class="st2" width="1024" height="768"/>
</g>
<g id="Layer_3">
</g>
<g id="Layer_2" class="st3">
	<rect x="405.6" y="61.1" class="st4" width="109" height="109"/>
	<rect x="405.6" y="184.7" class="st5" width="109" height="109"/>
	<rect x="405.6" y="308.3" class="st6" width="109" height="109"/>
	<rect x="405.6" y="432" class="st7" width="109" height="109"/>
	<rect x="405.6" y="555.6" class="st7" width="109" height="109"/>
</g>
</svg>
